<?xml version="1.0" encoding="UTF-8"?>
<svg width="3786px" height="92px" viewBox="0 0 3786 92" version="1.1" xmlns="http://www.w3.org/2000/svg" xmlns:xlink="http://www.w3.org/1999/xlink">
    <!-- Generator: Sketch 43.2 (39069) - http://www.bohemiancoding.com/sketch -->
    <title>motext</title>
    <desc>Created with Sketch.</desc>
    <defs></defs>
    <g id="motext-page" stroke="none" stroke-width="1" fill="none" fill-rule="evenodd" stroke-linecap="square">
        <g id="motext" stroke-width="8" stroke="#000000">
            <g id="mo-A" transform="translate(22.000000, 23.000000)" stroke-linejoin="bevel">
                <polyline id="Path" points="0.02734375 39 17.8105469 0.787597656 34.5727539 39"></polyline>
                <path d="M6.43066406,30.0213696 L28.3564453,29.9786304" id="Path-2"></path>
            </g>
            <g id="mo-B" transform="translate(90.000000, 26.000000)">
                <path d="M0.374023438,0.184476852 C15.307373,0.184476852 26.3007813,-1.38964844 26.3291016,9.16967773 C26.3574219,19.7290039 16.5867811,19.1204889 0.458984375,19.105304 C19.4030762,19.105304 27.5214844,17.4672852 27.5214844,27.7971191 C27.5214844,38.1269531 19.6787109,36 0.374023438,36 C0.374023438,28.4482422 0.374023438,8.12109375 0.374023438,0.184476852 Z" id="B"></path>
            </g>
            <g id="mo-C" transform="translate(150.000000, 25.000000)" stroke-linejoin="bevel">
                <path d="M26.1552734,2.81103516 C26.1552734,2.81103516 0.719726562,-7.6894084 0.66015625,18.9521932 C0.600585937,45.5937947 26.1552734,34.965332 26.1552734,34.965332" id="C"></path>
            </g>
            <g id="mo-D" transform="translate(210.000000, 25.000000)">
                <path d="M0.930175781,1.18447685 C17.0325602,0.74857424 29.9067383,-0.842773438 29.9067383,19.5454102 C29.9067383,39.9335938 15.8486328,37 1.57324219,37 C1.57324219,24.1572266 0.930175781,12.5913086 0.930175781,1.18447685 Z" id="Path-3"></path>
            </g>
            <g id="mo-G" transform="translate(383.000000, 26.000000)">
                <path d="M27.2172852,1.97070312 C27.2172852,1.97070312 3.99316406,-6.69775391 0.806152344,14.7915039 C0.800389944,18.9686154 -0.791015625,36 16.621582,36 C34.0341797,36 30.7456055,19.4622646 30.7456055,19.4622646 L21.8981944,19.4622646" id="Path-11"></path>
            </g>
            <g id="mo-E" transform="translate(276.000000, 26.000000)">
                <polyline id="Path-4" points="23.7734375 0.171875 0.623860279 0.171875 0.623860279 36 23.6523478 36"></polyline>
                <path d="M2,19 L19.1049805,19.1196289" id="Path-5" stroke-linejoin="bevel"></path>
            </g>
            <g id="mo-F" transform="translate(331.000000, 26.000000)">
                <polyline id="Path-4" points="23.7734375 0.171875 0.623860279 0.171875 0.623860279 36"></polyline>
                <path d="M2,19 L19.1049805,19.1196289" id="Path-5" stroke-linejoin="bevel"></path>
            </g>
            <g id="mo-H" transform="translate(447.000000, 26.000000)" stroke-linejoin="bevel">
                <path d="M1.66666667,0.184476852 L1.66666667,36" id="Path-8"></path>
                <path d="M31.6666667,0.184476852 L31.6666667,36" id="Path-8"></path>
                <path d="M2.00732422,19 L31.002191,19" id="Path-9"></path>
            </g>
            <g id="mo-I" transform="translate(513.000000, 26.000000)" stroke-linejoin="bevel">
                <path d="M1.66666667,0.184476852 L1.66666667,36" id="Path-8"></path>
            </g>
            <g id="mo-J" transform="translate(549.000000, 26.000000)" stroke-linejoin="bevel">
                <path d="M9.73486328,0 L9.73486328,26.3935547 C9.73486328,26.3935547 9.73486328,36 0.326660156,36" id="Path-10"></path>
            </g>
            <g id="mo-K" transform="translate(595.000000, 26.000000)" stroke-linejoin="bevel">
                <path d="M1,0 L1,36" id="Path-12"></path>
                <polyline id="Path-13" points="24.9042969 0.395507812 7.30078125 19 26.331543 35.9453125"></polyline>
            </g>
            <g id="mo-L" transform="translate(657.000000, 26.000000)">
                <polyline id="Path-14" points="0.0610351562 0 0.0610351562 36 19.4219923 36"></polyline>
            </g>
            <g id="mo-M" transform="translate(709.000000, 23.000000)" stroke-linejoin="bevel">
                <polyline id="Path-15" points="0.4765625 39 0.4765625 0.0921630859 17.6108398 29 34.7451172 0.0921630859 34.7451172 39"></polyline>
            </g>
            <g id="mo-N" transform="translate(779.000000, 24.000000)" stroke-linejoin="bevel">
                <polyline id="Path-16" points="0.799804688 38.4195557 0.799804688 0.731201172 29.0380859 39.4195557 29.0380859 1.73120117"></polyline>
            </g>
            <g id="mo-O" transform="translate(843.000000, 25.000000)" stroke-linejoin="bevel">
                <path d="M16.8861864,1 C16.8861864,1 32.8222656,-0.260882596 32.8222656,18.9907162 C32.8222656,38.2423151 16.8916212,37 16.8916212,37 C16.8916212,37 1.05957031,38.2423151 0.961425781,18.9907162 C0.86328125,-0.260882596 16.8861864,1 16.8861864,1 Z" id="Path-17"></path>
            </g>
            <g id="mo-P" transform="translate(911.000000, 25.000000)">
                <path d="M0.311035156,37 C0.311035156,37 0.311035156,11.6782227 0.311035156,1 C14.484375,1 26.1472135,-1.25733609 26.0737305,9.75244141 C26.0002474,20.7622189 14.347168,19.7734375 0.311035156,19.7734375" id="Path-18"></path>
            </g>
            <g id="mo-Q" transform="translate(970.000000, 24.000000)" stroke-linejoin="bevel">
                <path d="M22.4736328,39.0722656 C22.4736328,39.0722656 27.3417969,41.8896484 29.7709961,46.9106445" id="Path-20"></path>
                <path d="M16.8861864,1 C16.8861864,1 32.8222656,0.256426627 32.8222656,19.5080255 C32.8222656,38.7596243 16.8916212,38 16.8916212,38 C16.8916212,38 1.05957031,38.7596243 0.961425781,19.5080255 C0.86328125,0.256426627 16.8861864,1 16.8861864,1 Z" id="Path-17"></path>
            </g>
            <g id="mo-R" transform="translate(1038.000000, 25.000000)">
                <path d="M0.825683594,37.0913086 L0.825683594,1.10400183 C0.825683594,1.10400183 24.6279297,-3.42822266 24.6279297,8.58105469 C24.6279297,20.590332 14.7285156,18.5180664 1.47607422,18.5180664 C19.9384766,18.5180664 25.237793,18.902832 25.2714844,37.0913086" id="Path-21"></path>
            </g>
            <g id="mo-T" transform="translate(1156.000000, 25.000000)" stroke-linejoin="bevel">
                <path d="M0,1 L27.4517203,1" id="Path-23"></path>
                <path d="M13,2 L13,36.9677734" id="Path-24"></path>
            </g>
            <g id="mo-U" transform="translate(1215.000000, 26.000000)" stroke-linejoin="bevel">
                <path d="M0.749755859,0 L0.749755859,23.0256239 C0.749755859,23.0256239 1.69897461,36.1096191 14.4719238,36.1096191 C27.244873,36.1096191 28.9824219,23.9780273 28.9824219,23.9780273 L28.9824219,0" id="Path-25"></path>
            </g>
            <g id="mo-V" transform="translate(1277.000000, 27.000000)" stroke-linejoin="bevel">
                <polyline id="Path-26" points="0.781982422 0 17.0499268 38 33.3178711 0"></polyline>
            </g>
            <g id="mo-W" transform="translate(1342.000000, 26.000000)" stroke-linejoin="bevel">
                <polyline id="Path-27" points="0.567382812 0.0029296875 13.40625 39.246582 27.4746094 1.00292969 41.7592773 39.246582 54.3818359 0.0029296875"></polyline>
            </g>
            <g id="mo-X" transform="translate(1429.000000, 26.000000)" stroke-linejoin="bevel">
                <path d="M0.261230469,0.756347656 L26.715332,35.6665039" id="Path-28"></path>
                <path d="M0.261230469,0.756347656 L26.715332,35.6665039" id="Path-28" transform="translate(13.488281, 18.211426) scale(-1, 1) translate(-13.488281, -18.211426) "></path>
            </g>
            <g id="mo-Y" transform="translate(1489.000000, 26.000000)" stroke-linejoin="bevel">
                <polyline id="Path-28" points="0.261230469 0.756347656 13.5694643 18.318559 13.5694643 35.9992676"></polyline>
                <path d="M14.1789551,0.756347656 L26.715332,17.0441895" id="Path-28" transform="translate(20.447144, 8.900269) scale(-1, 1) translate(-20.447144, -8.900269) "></path>
            </g>
            <g id="mo-Z" transform="translate(1546.000000, 26.000000)" stroke-linejoin="bevel">
                <polyline id="Path-32" points="1.70947266 0.0068359375 26.1990657 0.0068359375 0.709472656 36.1508789 26.1990657 36.1508789"></polyline>
            </g>
            <g id="mo-b" transform="translate(1655.000000, 26.000000)" stroke-linejoin="bevel">
                <path d="M1,0 L1,36" id="Path-35"></path>
                <path d="M2.15185547,24.5328369 C2.15185547,17.6373291 6.15380859,13.315918 14.2775879,13.315918 C22.4013672,13.315918 24.7680664,19.151001 24.7680664,24.5328369 C24.7680664,29.9146729 21.9322225,36 14.2775879,36 C6.6229533,36 2.15185547,31.4283447 2.15185547,24.5328369 Z" id="Path-36"></path>
            </g>
            <g id="mo-c" transform="translate(1711.000000, 39.000000)" stroke-linejoin="bevel">
                <path d="M17.2055664,0.525650965 C13.8701172,-0.143294348 -1.24344979e-14,-2.12864591 -1.24344979e-14,10.5661783 C-1.18148223e-14,23.2610025 5.8984375,24.37819 18.1147461,22.6379557" id="Path-37"></path>
            </g>
            <g id="mo-e" transform="translate(1816.000000, 39.000000)">
                <path d="M5.43408203,11.2536621 C5.43408203,11.2536621 14.6650391,11.2536621 21.3847656,11.2536621 C21.3847656,6.61938477 20.0488281,0.0610351563 11.6586914,0.0610351562 C3.26855469,0.0610351562 0.478027344,6.24060329 0.478027344,11.2536621 C0.478027344,24.671875 10.7543945,25.6591797 19.9213867,22.1577148" id="Path-37"></path>
            </g>
            <g id="mo-d" transform="translate(1772.500000, 44.000000) scale(-1, 1) translate(-1772.500000, -44.000000) translate(1760.000000, 26.000000)" stroke-linejoin="bevel">
                <path d="M1,0 L1,36" id="Path-35"></path>
                <path d="M2.15185547,24.5328369 C2.15185547,17.6373291 6.15380859,13.315918 14.2775879,13.315918 C22.4013672,13.315918 24.7680664,19.151001 24.7680664,24.5328369 C24.7680664,29.9146729 21.9322225,36 14.2775879,36 C6.6229533,36 2.15185547,31.4283447 2.15185547,24.5328369 Z" id="Path-36"></path>
            </g>
            <g id="mo-q" transform="translate(2415.000000, 39.000000)" stroke-linejoin="bevel">
                <path d="M24,-8.52651283e-14 L24,32.0068359" id="Path-35" transform="translate(24.000000, 16.003418) rotate(-180.000000) translate(-24.000000, -16.003418) "></path>
                <path d="M0.231933594,11.2169189 C0.231933594,4.32141113 4.23388672,-8.31942208e-16 12.357666,-1.77635684e-15 C20.4814453,-1.77635684e-15 22.8481445,5.83508301 22.8481445,11.2169189 C22.8481445,16.5987549 20.0123006,22.684082 12.357666,22.684082 C4.70303142,22.684082 0.231933594,18.1124268 0.231933594,11.2169189 Z" id="Path-36" transform="translate(11.540039, 11.342041) rotate(-180.000000) translate(-11.540039, -11.342041) "></path>
            </g>
            <g id="mo-p" transform="translate(2363.000000, 39.000000)" stroke-linejoin="bevel">
                <path d="M1,-9.9475983e-14 L1,32.2236328" id="Path-35" transform="translate(1.000000, 16.111816) scale(-1, 1) rotate(-180.000000) translate(-1.000000, -16.111816) "></path>
                <path d="M2.15185547,11.2169189 C2.15185547,4.32141113 6.15380859,-8.31942208e-16 14.2775879,-1.77635684e-15 C22.4013672,-1.77635684e-15 24.7680664,5.83508301 24.7680664,11.2169189 C24.7680664,16.5987549 21.9322225,22.684082 14.2775879,22.684082 C6.6229533,22.684082 2.15185547,18.1124268 2.15185547,11.2169189 Z" id="Path-36" transform="translate(13.459961, 11.342041) scale(-1, 1) rotate(-180.000000) translate(-13.459961, -11.342041) "></path>
            </g>
            <g id="mo-o" transform="translate(2307.000000, 38.000000)" stroke-linejoin="bevel">
                <path d="M0.151855469,12.5998535 C0.151855469,6.0637207 4.06054687,0.694335937 11.4423828,0.694335937 C18.8242188,0.694335937 22.7680664,5.8918457 22.7680664,12.5998535 C22.7680664,19.3078613 19.7089844,24.5053711 11.4423828,24.5053711 C3.17578125,24.5053711 0.151855469,19.1359863 0.151855469,12.5998535 Z" id="Path-36" transform="translate(11.459961, 12.599854) scale(-1, 1) rotate(-180.000000) translate(-11.459961, -12.599854) "></path>
            </g>
            <g id="mo-f" transform="translate(1865.000000, 26.000000)" stroke-linejoin="bevel">
                <path d="M0.703613281,13 L14.8864502,13" id="Path-42"></path>
                <path d="M15.4082031,0 L15.4082031,26.3935547 C15.4082031,26.3935547 15.4082031,36 6,36" id="Path-10" transform="translate(10.704102, 18.000000) rotate(-180.000000) translate(-10.704102, -18.000000) "></path>
            </g>
            <g id="mo-t" transform="translate(2565.000000, 26.000000)" stroke-linejoin="bevel">
                <path d="M0.703613281,10 L14.8864502,10" id="Path-42" transform="translate(7.795032, 10.000000) scale(-1, 1) rotate(-180.000000) translate(-7.795032, -10.000000) "></path>
                <path d="M15.4082031,0.0517578125 C15.4082031,0.0517578125 15.4082031,20.309082 15.4082031,26.3935547 C15.4082031,28 15.4082031,36 6,36" id="Path-10" transform="translate(10.704102, 18.025879) scale(-1, 1) rotate(-360.000000) translate(-10.704102, -18.025879) "></path>
            </g>
            <g id="mo-g" transform="translate(1910.000000, 38.000000)" stroke-linejoin="bevel">
                <path d="M23.1357422,0.959960938 L23.1357422,25.2947241 C23.1357422,25.2947241 24.1748047,39.6621094 2.10449219,32.2548828" id="Path-43"></path>
                <path d="M0.151855469,11.0998535 C0.151855469,4.5637207 4.06054688,0.694335938 11.4423828,0.694335938 C18.8242188,0.694335938 22.7680664,4.3918457 22.7680664,11.0998535 C22.7680664,17.8078613 19.7089844,21.5053711 11.4423828,21.5053711 C3.17578125,21.5053711 0.151855469,17.6359863 0.151855469,11.0998535 Z" id="Path-36" transform="translate(11.459961, 11.099854) scale(-1, 1) rotate(-180.000000) translate(-11.459961, -11.099854) "></path>
            </g>
            <g id="mo-h" transform="translate(1967.000000, 26.000000)" stroke-linejoin="bevel">
                <path d="M1.58105469,0 L1.58105469,36" id="Path-45"></path>
                <path d="M3.72509766,18.5 C3.72509766,18.5 8.07543945,13.1103516 13.5605469,13.1103516 C18.6548728,13.1103516 22.3300781,15.8791504 22.2006468,21.4881185 C22.1483568,23.7541332 22.3300781,36 22.3300781,36" id="Path-46"></path>
            </g>
            <g id="mo-i" transform="translate(2022.000000, 25.000000)" stroke-linejoin="bevel">
                <path d="M1.46435547,14.5131836 L1.46435547,37" id="Path"></path>
                <path d="M1.21435547,0.8984375 L1.21435547,2.18359955" id="Path-47"></path>
            </g>
            <g id="mo-j" transform="translate(2049.000000, 25.000000)" stroke-linejoin="bevel">
                <path d="M9.40820312,14.3920898 L9.40820313,36.3935547 C9.40820313,36.3935547 9.40820313,46 0,46" id="Path-10"></path>
                <path d="M9.21435547,0.8984375 L9.21435547,2.18359955" id="Path-47"></path>
            </g>
            <g id="mo-k" transform="translate(2092.000000, 25.000000)" stroke-linejoin="bevel">
                <path d="M1.53417969,0.915039062 L1.53417969,37.1826172" id="Path-50"></path>
                <polyline id="Path-51" points="19.7685547 14.2216797 4.58447266 24.2275391 20.8154297 36.6450195"></polyline>
            </g>
            <g id="mo-l" transform="translate(2143.000000, 26.000000)" stroke-linejoin="bevel">
                <path d="M1.89111328,0 L1.89111328,36" id="Path-52"></path>
            </g>
            <g id="mo-n" transform="translate(2251.000000, 38.000000)" stroke-linejoin="bevel">
                <path d="M1.98364258,0.915039062 L1.98364258,24.0478516" id="Path-56"></path>
                <path d="M3.43774414,8.31665039 C3.43774414,8.31665039 7.45409355,0.380371525 15.7866211,0.905273438 C22.7937012,1.34667969 23.0629883,8.24267578 23.0629883,8.24267578 L23.0629883,24.2392578" id="Path-57"></path>
            </g>
            <g id="mo-m" transform="translate(2181.000000, 38.000000)" stroke-linejoin="bevel">
                <path d="M1.98364258,0.958007812 L1.98364258,24.1279297" id="Path-56"></path>
                <path d="M3.43774414,8.31665039 C3.43774414,8.31665039 6.45409355,0.380371525 14.7866211,0.905273438 C21.7937012,1.34667969 22.0629883,8.24267578 22.0629883,8.24267578 L22.0629883,24.2392578" id="Path-57"></path>
                <path d="M23.4377441,8.31665039 C23.4377441,8.31665039 26.4540935,0.380371525 34.7866211,0.905273438 C41.7937012,1.34667969 42.0629883,8.24267578 42.0629883,8.24267578 L42.0629883,24.2392578" id="Path-57"></path>
            </g>
            <g id="mo-u" transform="translate(2613.000000, 39.000000)" stroke-linejoin="bevel">
                <path d="M21,0 L21,22.9288599" id="Path-56" transform="translate(21.000000, 11.464430) rotate(-180.000000) translate(-21.000000, -11.464430) "></path>
                <path d="M0,7.4363121 C0,7.4363121 4.01634941,-0.499966762 12.348877,0.0249351512 C19.355957,0.466341401 19.6252441,7.36233749 19.6252441,7.36233749 L19.6252441,23.3589195" id="Path-57" transform="translate(9.812622, 11.679460) rotate(-180.000000) translate(-9.812622, -11.679460) "></path>
            </g>
            <g id="mo-r" transform="translate(2474.000000, 38.000000)" stroke-linejoin="bevel">
                <path d="M1.95068359,1.0703125 L1.95068359,24.2470703" id="Path-63"></path>
                <path d="M4.03076172,6.28881836 C4.03076172,6.28881836 9.47705078,0.571777344 16.0053711,0.615234375" id="Path-64"></path>
            </g>
            <g id="mo-v" transform="translate(2666.000000, 39.000000)" stroke-linejoin="bevel">
                <polyline id="Path-70" points="0.184570312 0.453125 10.5964355 25.3190918 21.5344238 0.453125"></polyline>
            </g>
            <g id="mo-w" transform="translate(2717.000000, 37.000000)" stroke-linejoin="bevel">
                <polyline id="Path-71" points="0.263183594 2.12255859 10.470459 27.3874512 21.447876 0.283447266 31.8925781 27.3874512 42.1428223 2.12255859"></polyline>
            </g>
            <g id="mo-x" transform="translate(2790.000000, 38.000000)">
                <path d="M0.870605469,0.713623047 L20.3701172,23.8598633" id="Path-72"></path>
                <path d="M0.009765625,24.1662598 L19.5686035,0.756591797" id="Path-73"></path>
            </g>
            <g id="mo-y" transform="translate(2840.000000, 38.000000)">
                <path d="M0.369384766,0.845458984 L9.95239258,22.0119629" id="Path-74"></path>
                <path d="M22.7770996,1.21191406 L8.23583984,34.0283203" id="Path-75"></path>
            </g>
            <g id="mo-z" transform="translate(2892.000000, 39.000000)" stroke-linejoin="bevel">
                <polyline id="Path-76" points="0.614135742 0.00109863281 20.2065431 0.00109863281 0.614135742 22.8486328 20.2065431 22.8486328"></polyline>
            </g>
            <g id="mo-1" transform="translate(2945.000000, 25.000000)" stroke-linejoin="bevel">
                <polyline id="Path-77" points="0.525390625 7.64208984 11.7387695 0.547119141 11.7387695 34.7738028"></polyline>
                <path d="M1.09716797,36.6572266 L23.104884,36.6572266" id="Path-78"></path>
            </g>
            <g id="mo-2" transform="translate(2998.000000, 27.000000)" stroke-linejoin="bevel">
                <path d="M1.12817383,2.08383303 C1.12817383,2.08383303 14.7624512,-3.15591307 19.8015137,2.98202639 C24.8405762,9.11996584 12.5734863,21.1197217 12.5734863,21.1197217 L0,34.7518018 L22.9415852,34.7518018" id="Path-79"></path>
            </g>
            <g id="mo-3" transform="translate(3053.000000, 26.000000)" stroke-linejoin="bevel">
                <path d="M0.831298828,3.12475586 C0.831298828,3.12475586 20.0683594,-4.65698242 20.300293,8.20117187 C20.5322266,21.0593262 3.36889648,18.5856934 3.36889648,18.5856934 C3.36889648,18.5856934 22.0505371,20.0629883 22.0505371,28.8952637 C22.0505371,37.7275391 5.35888672,36.7541504 0.305664062,34.3930664" id="Path-80"></path>
            </g>
            <g id="mo-4" transform="translate(3105.000000, 23.000000)" stroke-linejoin="bevel">
                <polyline id="Path-81" points="21.4033203 38.717041 21.4033203 0.592041016 0.623779297 31.4423828 27.9455566 31.4423828"></polyline>
            </g>
            <g id="mo-5" transform="translate(3163.000000, 25.000000)">
                <path d="M21.7275391,0.797363281 L2.16070339,0.797363281 L2.16070339,15.7540346 C2.16070339,15.7540346 22.7275391,9.83447266 22.7275391,26.2763672 C22.7275391,42.7182617 3.24438477,35.2861328 0.609130859,34.0361328" id="Path-82"></path>
            </g>
            <g id="mo-6" transform="translate(3218.000000, 25.000000)" stroke-linejoin="bevel">
                <path d="M22.6022949,3.25463867 C17.8552246,1.19677734 0.0593261719,-5.58569336 0.0593261719,18.4953613 C0.0593261719,42.576416 19.736084,39.3891602 23.1965332,29.0976562 C26.6569824,18.8061523 15.8046875,11.296875 3.05737305,20.9387207" id="Path-83"></path>
            </g>
            <g id="mo-7" transform="translate(3272.000000, 26.000000)" stroke-linejoin="bevel">
                <polyline id="Path-84" points="0.433837891 0.230712891 24.9803957 0.230712891 5.32324219 36.2097168"></polyline>
            </g>
            <g id="mo-8" transform="translate(3326.000000, 26.000000)" stroke-linejoin="bevel">
                <path d="M24.0273438,9 C24.0273437,20.5703125 0.947509766,13.2159424 0.947509766,26.9537354 C0.947509766,40.6915283 25.6799316,39.7860107 25.6799316,26.9537354 C25.6799316,14.12146 2.53119582,20.6541141 2.77368164,9 C3.01616746,-2.65411411 24.0273438,-2.5703125 24.0273438,9 Z" id="Path-85"></path>
            </g>
            <g id="mo-9" transform="translate(3383.000000, 26.000000)" stroke-linejoin="bevel">
                <path d="M20.2753906,15.9943848 C20.2753906,15.9943848 0.00048828125,26.890625 0.00048828125,11.4887695 C0.00048828125,-3.91308594 22.5925293,-4.25415039 22.7253418,13.8562012 C22.8581543,31.9665527 14.0620117,41.2172852 0.00048828125,33.8569336" id="Path-86"></path>
            </g>
            <g id="mo-0" transform="translate(3437.000000, 26.000000)" stroke-linejoin="bevel">
                <path d="M12.2229004,0.0219726562 C26.848877,0.0219726562 29.3320738,35.6315931 12.6044922,35.8193359 C-4.12308938,36.0070788 -2.40307617,0.0219726562 12.2229004,0.0219726562 Z" id="Path-87"></path>
            </g>
            <g id="mo-exclamation-mark" transform="translate(3493.000000, 26.000000)" stroke-linejoin="bevel">
                <path d="M1.09643555,0.151123047 L1.09643555,20.9643555" id="Path-88"></path>
                <path d="M1.02612305,32.3188477 L1.02612305,35.4121776" id="Path-89"></path>
            </g>
            <g id="mo-question-mark" transform="translate(3525.000000, 25.000000)" stroke-linejoin="bevel">
                <path d="M0.696044922,3.03930664 C5.30249023,0.66015625 19.0620117,-2.3659668 19.0620117,6.31420898 C19.0620117,14.9943848 10.1835937,13.3579102 10.1835937,22.3186035" id="Path-90"></path>
                <path d="M9.80810547,33.8654785 L9.80810547,37.3102732" id="Path-91"></path>
            </g>
            <g id="mo-period" transform="translate(3630.000000, 61.000000)" stroke-linejoin="bevel">
                <path d="M1.74853516,0.201416016 L1.74853516,1.35506888" id="Path-92"></path>
            </g>
            <g id="mo-comma" transform="translate(3664.000000, 59.000000)" stroke-linejoin="bevel">
                <path d="M0.461181641,3.38427734 C0.461181641,3.38427734 1.7487793,-2.20776367 3.3815918,1.13208008 C5.0144043,4.47192383 5.37915039,9.01098633 2.41887049,12.9626465" id="Path-93"></path>
            </g>
            <g id="mo-double-quote" transform="translate(3699.000000, 26.000000)" stroke-linejoin="bevel">
                <path d="M1.90258789,0.015625 L1.90258789,11.1462419" id="Path-94"></path>
                <path d="M15.9025879,0.015625 L15.9025879,11.1462419" id="Path-94"></path>
            </g>
            <g id="mo-apostrophe" transform="translate(3740.000000, 28.000000)" stroke-linejoin="bevel">
                <path d="M1.74853516,-1.79858398 L1.74853516,1.35506888" id="Path-92"></path>
            </g>
            <g id="mo-ampersand" transform="translate(3574.000000, 25.000000)" stroke-linejoin="bevel">
                <path d="M29.3378906,37.0131836 C9.29052734,13.5561523 4.17724609,12.9519043 4.17724609,6.48461914 C4.17724609,0.0173339844 7.66186523,0.0173339844 11.404541,0.0173339844 C15.1472168,0.0173339844 18.6318359,0.0173339844 18.6318359,6.48461914 C18.6318359,12.9519043 0.458496094,16.4921875 0.458496094,28.909668 C0.458496094,41.3271484 29.3378906,39.8955078 29.3378906,21" id="Path-95"></path>
            </g>
            <g id="mo-S" transform="translate(1100.000000, 26.000000)" stroke-linejoin="bevel">
                <path d="M23.2942658,2.27071571 C19.8790386,0.274171297 0.641718742,-3.574684 0.641718742,9.14430101 C0.641718742,21.863286 24.9121393,14.7448284 25.0899964,27.0468811 C25.2678535,39.3489339 7.31866413,36.6993965 0.0040303417,33.4789542" id="Path-22"></path>
            </g>
            <g id="mo-s" transform="translate(2518.000000, 38.000000)" stroke-linejoin="bevel">
                <path d="M15.8036714,2.3692608 C13.6200964,1.09274119 1.32043707,-1.36808023 1.32043707,6.76398719 C1.32043707,14.8960546 16.8380822,10.3447655 16.9517977,18.2102613 C17.0655132,26.075757 5.58943888,24.3817369 0.912721748,22.3227004" id="Path-22"></path>
            </g>
            <g id="mo-a" transform="translate(1600.000000, 38.000000)">
                <path d="M2.63113405,2.94482517 C6.61089726,1.30270867 14.0393785,-0.741052037 17.6455192,3.55993541 C21.2516599,7.86092285 19.6355147,12.7514768 19.6355147,24.261812" id="Path-33" stroke-linejoin="round"></path>
                <path d="M16.7870987,12.8772607 C2.09325433,12.6266602 -0.731012921,16.6781863 1.27629681,21.6122817 C3.28360654,26.546377 13.8780829,24.5723288 16.4599512,21.6122817" id="Path-34" stroke-linejoin="bevel"></path>
            </g>
        </g>
    </g>
</svg>