<svg width="69" height="60" viewBox="0 0 69 60" fill="none" xmlns="http://www.w3.org/2000/svg">
<g id="nunito" clip-path="url(#clip0)">
<rect width="69" height="60" fill="white"/>
<g id="mo-A">
<mask id="mask0" mask-type="alpha" maskUnits="userSpaceOnUse" x="-3" y="-2" width="53" height="52">
<g id="A">
<path id="Path" d="M3.125 46.5L24.1243 1.25L43.875 46.5" stroke="#FF0000" stroke-width="12" stroke-linejoin="bevel"/>
<path id="Path 2" d="M13.625 30.625L34.625 30.5" stroke="#FF0000" stroke-width="12" stroke-linejoin="bevel"/>
</g>
</mask>
<g mask="url(#mask0)">
<path id="mo-A-mask" d="M38.5023 44.46L34.3483 34.788H14.0123L9.85827 44.46H0.124268L20.2123 0.75H27.9623L48.0503 44.46H38.5023ZM17.1743 27.472H31.1863L24.1803 11.104L17.1743 27.472Z" fill="black"/>
</g>
</g>
<g id="mo-B">
<mask id="mask1" mask-type="alpha" maskUnits="userSpaceOnUse" x="-3" y="-3" width="41" height="51">
<g id="B">
<g id="B_2">
<path id="B_3" d="M3.87524 3.17771C18.8086 3.17771 30.7219 1.99339 30.7502 12.5527C30.7786 23.112 26.2971 21.4902 9.79712 21.4902C27.3381 21.3849 31.7502 22.2229 31.7502 32.5527C31.7502 42.8826 23.8762 41.3027 4.75024 40.8027C4.75024 33.7997 3.99779 9.25459 3.88843 0.121857" stroke="#FF0000" stroke-width="12"/>
</g>
</g>
</mask>
<g mask="url(#mask1)">
<path id="mo-B-mask" d="M28.3362 21.6327C30.8576 22.3767 32.8002 23.6787 34.1642 25.5387C35.5696 27.3574 36.2722 29.61 36.2722 32.2967C36.2722 35.9754 34.9082 38.8894 32.1802 41.0387C29.4936 43.188 25.7736 44.2627 21.0202 44.2627H0.250244V0.552704H20.4002C24.9469 0.552704 28.5429 1.56537 31.1882 3.59071C33.8749 5.61604 35.2182 8.38537 35.2182 11.8987C35.2182 14.172 34.5982 16.1767 33.3582 17.9127C32.1596 19.6074 30.4856 20.8474 28.3362 21.6327ZM9.67424 18.3467H18.7882C21.2682 18.3467 23.0869 17.9334 24.2442 17.1067C25.4429 16.2387 26.0422 14.9367 26.0422 13.2007C26.0422 11.382 25.4429 10.0594 24.2442 9.23271C23.0869 8.36471 21.2682 7.93071 18.7882 7.93071H9.67424V18.3467ZM19.9042 36.8847C22.4669 36.8847 24.3269 36.4507 25.4842 35.5827C26.6416 34.7147 27.2202 33.3094 27.2202 31.3667C27.2202 29.424 26.6416 27.998 25.4842 27.0887C24.3269 26.1794 22.4669 25.7247 19.9042 25.7247H9.67424V36.8847H19.9042Z" fill="black"/>
</g>
</g>
<g id="mo-C">
<mask id="mask2" mask-type="alpha" maskUnits="userSpaceOnUse" x="-2" y="-2" width="42" height="50">
<g id="mo C">
<path id="C" d="M36.25 8.875C31.875 5.875 4.49999 -5.62499 4.62437 22.7191C4.5648 49.3607 29.25 40.625 35.625 36.75" stroke="#FF0000" stroke-width="12" stroke-linejoin="bevel"/>
</g>
</mask>
<g mask="url(#mask2)">
<path id="REF" d="M21.8262 45.3249C17.4035 45.3249 13.5389 44.3949 10.2322 42.5349C6.96688 40.6749 4.44554 38.0502 2.66821 34.6609C0.932209 31.2715 0.064209 27.3449 0.064209 22.8809C0.064209 18.4169 0.932209 14.4902 2.66821 11.1009C4.44554 7.71154 6.96688 5.10754 10.2322 3.28887C13.5389 1.42887 17.4035 0.498871 21.8262 0.498871C24.7195 0.498871 27.4889 0.953539 30.1342 1.86287C32.7795 2.73087 34.9495 3.95021 36.6442 5.52087L33.5442 12.4029C31.6429 10.9562 29.7415 9.90221 27.8402 9.24087C25.9802 8.57954 24.0375 8.24887 22.0122 8.24887C18.1269 8.24887 15.1302 9.48887 13.0222 11.9689C10.9555 14.4489 9.92221 18.0862 9.92221 22.8809C9.92221 27.6755 10.9555 31.3335 13.0222 33.8549C15.1302 36.3349 18.1269 37.5749 22.0122 37.5749C24.0375 37.5749 25.9802 37.2442 27.8402 36.5829C29.7415 35.9215 31.6429 34.8675 33.5442 33.4209L36.6442 40.3029C34.9495 41.8735 32.7795 43.1135 30.1342 44.0229C27.4889 44.8909 24.7195 45.3249 21.8262 45.3249Z" fill="black"/>
</g>
</g>
<g id="mo-D">
<mask id="mask3" mask-type="alpha" maskUnits="userSpaceOnUse" x="-1" y="-3" width="42" height="50">
<g id="mo D">
<path id="Path 3" d="M5.13599 4.18448C21.2384 3.74858 34.1125 2.15723 34.1125 22.5454C34.1125 42.9336 20.0544 40 5.77905 40C5.77905 28.2116 5.23724 10.4989 5.14828 -0.00231934" stroke="#FF0000" stroke-width="12"/>
</g>
</mask>
<g mask="url(#mask3)">
<path id="REF_2" d="M0.545776 0.290009H17.5338C22.2871 0.290009 26.3791 1.15801 29.8098 2.89401C33.2404 4.63001 35.8651 7.13067 37.6838 10.396C39.5024 13.6613 40.4118 17.5673 40.4118 22.114C40.4118 26.6607 39.5024 30.5873 37.6838 33.894C35.9064 37.1593 33.3024 39.66 29.8718 41.396C26.4411 43.132 22.3284 44 17.5338 44H0.545776V0.290009ZM16.8518 36.188C26.1518 36.188 30.8018 31.4967 30.8018 22.114C30.8018 12.7727 26.1518 8.10201 16.8518 8.10201H10.2178V36.188H16.8518Z" fill="black"/>
</g>
</g>
<g id="mo-E">
<mask id="mask4" mask-type="alpha" maskUnits="userSpaceOnUse" x="-1" y="-2" width="33" height="48">
<g id="mo E">
<path id="Path 4" d="M31.199 4.17188H5.04947V40H31.078" stroke="#FF0000" stroke-width="12"/>
<path id="Path 5" d="M11.0506 22H30.1756" stroke="#FF0000" stroke-width="12" stroke-linejoin="bevel"/>
</g>
</mask>
<g mask="url(#mask4)">
<path id="REF_3" d="M0.765533 44V0.290009H30.8975V7.79201H10.1895V18.022H29.6575V25.524H10.1895V36.498H30.8975V44H0.765533Z" fill="black"/>
</g>
</g>
<g id="mo-F">
<mask id="mask5" mask-type="alpha" maskUnits="userSpaceOnUse" x="-2" y="-2" width="32" height="46">
<g id="mo F">
<path id="Path 4_2" d="M29.886 4.17188H4.36252V44" stroke="#FF0000" stroke-width="12"/>
<path id="Path 5_2" d="M9.61252 22H28.3625" stroke="#FF0000" stroke-width="12" stroke-linejoin="bevel"/>
</g>
</mask>
<g mask="url(#mask5)">
<path id="REF_4" d="M0.202484 44V0.290009H29.7145V7.91601H9.75048V17.96H28.4745V25.586H9.75048V44H0.202484Z" fill="black"/>
</g>
</g>
<g id="mo-G">
<mask id="mask6" mask-type="alpha" maskUnits="userSpaceOnUse" x="-2" y="-2" width="45" height="50">
<g id="mo G">
<path id="Path 11" d="M38.125 9.375C32.25 4.125 7.81257 -1.69774 4.62556 19.7915C4.6198 23.9686 3.02839 41 20.441 41C44.6944 44.5 34.565 24.4623 34.565 24.4623L21.5694 24.625" stroke="#FF0000" stroke-width="12"/>
</g>
</mask>
<g mask="url(#mask6)">
<path id="REF_5" d="M39.2314 20.882V42.272C37.1234 43.3053 34.6434 44.1113 31.7914 44.69C28.9394 45.2687 26.0047 45.558 22.9874 45.558C18.358 45.558 14.3487 44.6693 10.9594 42.892C7.57004 41.0733 4.96604 38.49 3.14737 35.142C1.32871 31.7527 0.419373 27.7433 0.419373 23.114C0.419373 18.5673 1.30804 14.62 3.08537 11.272C4.90404 7.88266 7.48737 5.27866 10.8354 3.46C14.1834 1.64133 18.0894 0.731995 22.5534 0.731995C25.6947 0.731995 28.6087 1.166 31.2954 2.034C34.0234 2.902 36.276 4.10066 38.0534 5.63L35.0154 12.512C32.99 11.0653 31.006 10.032 29.0634 9.412C27.162 8.75066 25.0954 8.42 22.8634 8.42C14.4314 8.42 10.2154 13.318 10.2154 23.114C10.2154 28.1567 11.3107 31.918 13.5014 34.398C15.692 36.878 18.9987 38.118 23.4214 38.118C25.8187 38.118 28.1954 37.808 30.5514 37.188V27.578H21.9954V20.882H39.2314Z" fill="black"/>
</g>
</g>
<g id="mo-H">
<mask id="mask7" mask-type="alpha" maskUnits="userSpaceOnUse" x="-1" y="0" width="43" height="44">
<g id="mo H">
<path id="Path 8" d="M5.62427 0.184479V44" stroke="#FF0000" stroke-width="12" stroke-linejoin="bevel"/>
<path id="Path 8_2" d="M35.6243 0.184479V44" stroke="#FF0000" stroke-width="12" stroke-linejoin="bevel"/>
<path id="Path 9" d="M10.9649 23H29.9598" stroke="#FF0000" stroke-width="12" stroke-linejoin="bevel"/>
</g>
</mask>
<g mask="url(#mask7)">
<path id="REF_6" d="M30.4336 0.290009H39.9196V44H30.4336V25.648H10.2836V44H0.797607V0.290009H10.2836V17.96H30.4336V0.290009Z" fill="black"/>
</g>
</g>
<g id="mo-I">
<mask id="mask8" mask-type="alpha" maskUnits="userSpaceOnUse" x="-1" y="0" width="13" height="44">
<g id="mo I">
<path id="Path 8_3" d="M5.62427 0.184479V44" stroke="#FF0000" stroke-width="12" stroke-linejoin="bevel"/>
</g>
</mask>
<g mask="url(#mask8)">
<path id="REF_7" d="M0.797485 44V0.290009H10.4695V44H0.797485Z" fill="black"/>
</g>
</g>
<g id="mo-J">
<mask id="mask9" mask-type="alpha" maskUnits="userSpaceOnUse" x="0" y="0" width="22" height="47">
<g id="mo J">
<path id="Path 10" d="M15.3284 0V30.3936C15.3284 30.3936 15.375 40.75 0.5 40.75" stroke="#FF0000" stroke-width="12" stroke-linejoin="bevel"/>
</g>
</mask>
<g mask="url(#mask9)">
<path id="REF_8" d="M0.845459 36.87L5.55746 36.56C7.21079 36.4773 8.43013 36.0227 9.21546 35.196C10.0008 34.328 10.3935 33.0467 10.3935 31.352V0.290009H20.1275V31.228C20.1275 39.4533 15.8081 43.814 7.16946 44.31L1.40346 44.62L0.845459 36.87Z" fill="black"/>
</g>
</g>
<g id="mo-K">
<mask id="mask10" mask-type="alpha" maskUnits="userSpaceOnUse" x="-1" y="-7" width="48" height="59">
<g id="mo K">
<path id="Path 12" d="M5.93677 0V44" stroke="#FF0000" stroke-width="12" stroke-linejoin="bevel"/>
<path id="Path 13" d="M37.25 -2.75L13.75 21.875L42.25 47.375" stroke="#FF0000" stroke-width="12" stroke-linejoin="bevel"/>
</g>
</mask>
<g mask="url(#mask10)">
<path id="REF_9" d="M41.0148 44H29.4208L10.4488 23.85V44H0.776794V0.290009H10.4488V19.51L28.8008 0.290009H40.2088L19.8728 21.184L41.0148 44Z" fill="black"/>
</g>
</g>
<g id="mo-L">
<mask id="mask11" mask-type="alpha" maskUnits="userSpaceOnUse" x="-2" y="0" width="33" height="46">
<g id="mo L">
<path id="Path 14" d="M4.94379 0V40H30.3047" stroke="#FF0000" stroke-width="12"/>
</g>
</mask>
<g mask="url(#mask11)">
<path id="REF_10" d="M0.722778 44V0.290009H10.3948V36.126H29.9248V44H0.722778Z" fill="black"/>
</g>
</g>
<g id="mo-M">
<mask id="mask12" mask-type="alpha" maskUnits="userSpaceOnUse" x="-1" y="-3" width="47" height="47">
<g id="mo M">
<path id="Path 15" d="M5.48999 44V0.0921631L22.6243 34.125L39.7585 0.0921631V44" stroke="#FF0000" stroke-width="12" stroke-linejoin="bevel"/>
</g>
</mask>
<g mask="url(#mask12)">
<path id="REF_11" d="M36.7514 0.290009H44.2534V44H35.7594V18.084L25.7154 36.808H19.5154L9.47142 18.332V44H0.977417V0.290009H8.60342L22.6774 27.012L36.7514 0.290009Z" fill="black"/>
</g>
</g>
<g id="mo-N">
<mask id="mask13" mask-type="alpha" maskUnits="userSpaceOnUse" x="-1" y="-4" width="41" height="52">
<g id="mo N">
<path id="Path 16" d="M5.50513 44.375V-0.268799L33.7434 44.4196V-0.5" stroke="#FF0000" stroke-width="12" stroke-linejoin="bevel"/>
</g>
</mask>
<g mask="url(#mask13)">
<path id="REF_12" d="M29.9374 0.290009H38.9894V44H31.7974L10.0353 16.162V44H1.04535V0.290009H8.17535L29.9374 28.004V0.290009Z" fill="black"/>
</g>
</g>
<g id="mo-O">
<mask id="mask14" mask-type="alpha" maskUnits="userSpaceOnUse" x="-1" y="-2" width="45" height="50">
<g id="mo O">
<path id="Path 17" fill-rule="evenodd" clip-rule="evenodd" d="M21.6188 5.00001C21.6188 5.00001 37.5549 3.73913 37.5549 22.9907C37.5549 42.2423 21.6242 41 21.6242 41C21.6242 41 5.7922 42.2423 5.69405 22.9907C5.59591 3.73913 21.6188 5.00001 21.6188 5.00001Z" stroke="#FF0000" stroke-width="12" stroke-linejoin="bevel"/>
</g>
</mask>
<g mask="url(#mask14)">
<path id="REF_13" d="M21.6606 45.558C17.3206 45.558 13.5386 44.6487 10.3146 42.83C7.13191 40.97 4.67258 38.366 2.93658 35.018C1.20058 31.6287 0.332581 27.6607 0.332581 23.114C0.332581 18.5673 1.20058 14.62 2.93658 11.272C4.67258 7.88266 7.13191 5.27866 10.3146 3.46C13.5386 1.64133 17.3206 0.731995 21.6606 0.731995C26.0006 0.731995 29.7619 1.64133 32.9446 3.46C36.1686 5.27866 38.6486 7.88266 40.3846 11.272C42.1206 14.62 42.9886 18.5673 42.9886 23.114C42.9886 27.6607 42.1206 31.6287 40.3846 35.018C38.6486 38.366 36.1686 40.97 32.9446 42.83C29.7619 44.6487 26.0006 45.558 21.6606 45.558ZM21.6606 38.056C25.2979 38.056 28.1499 36.7747 30.2166 34.212C32.3246 31.6493 33.3786 27.95 33.3786 23.114C33.3786 18.278 32.3452 14.5993 30.2786 12.078C28.2119 9.51533 25.3392 8.234 21.6606 8.234C17.9819 8.234 15.1092 9.51533 13.0426 12.078C11.0172 14.5993 10.0046 18.278 10.0046 23.114C10.0046 27.95 11.0379 31.6493 13.1046 34.212C15.1712 36.7747 18.0232 38.056 21.6606 38.056Z" fill="black"/>
</g>
</g>
<g id="mo-P">
<mask id="mask15" mask-type="alpha" maskUnits="userSpaceOnUse" x="-1" y="-3" width="39" height="47">
<g id="mo P">
<path id="Path 18" d="M5.74274 44C5.74274 44 5.74274 14.6782 5.74274 3.99999C19.9161 3.99999 31.5789 1.74265 31.5054 12.7524C31.4319 23.7622 25.7789 22.7734 11.7427 22.7734" stroke="#FF0000" stroke-width="12"/>
</g>
</mask>
<g mask="url(#mask15)">
<path id="REF_14" d="M0.771729 0.290009H20.8597C25.6131 0.290009 29.3124 1.48868 31.9577 3.88601C34.6031 6.28334 35.9257 9.63134 35.9257 13.93C35.9257 18.2287 34.6031 21.5767 31.9577 23.974C29.3124 26.3713 25.6131 27.57 20.8597 27.57H10.4437V44H0.771729V0.290009ZM19.6197 20.254C24.4557 20.254 26.8737 18.1667 26.8737 13.992C26.8737 11.8427 26.2744 10.2513 25.0757 9.21801C23.8771 8.18468 22.0584 7.66801 19.6197 7.66801H10.4437V20.254H19.6197Z" fill="black"/>
</g>
</g>
<g id="mo-Q">
<mask id="mask16" mask-type="alpha" maskUnits="userSpaceOnUse" x="-1" y="-3" width="45" height="63">
<g id="mo Q">
<path id="Path 20" d="M27.2063 42.0723C27.2063 42.0723 35.5708 52.229 38 57.25" stroke="#FF0000" stroke-width="12" stroke-linejoin="bevel"/>
<path id="Path 17_2" fill-rule="evenodd" clip-rule="evenodd" d="M21.6188 4.00001C21.6188 4.00001 37.5549 3.25644 37.5549 22.508C37.5549 41.7596 21.6242 41 21.6242 41C21.6242 41 5.7922 41.7596 5.69405 22.508C5.59591 3.25644 21.6188 4.00001 21.6188 4.00001Z" stroke="#FF0000" stroke-width="12" stroke-linejoin="bevel"/>
</g>
</mask>
<g mask="url(#mask16)">
<path id="REF_15" d="M32.3886 43.14C33.4219 43.4293 34.3106 43.9047 35.0546 44.566C35.8399 45.2273 36.5839 46.0953 37.2866 47.17L41.9366 54.734L33.6906 58.578L27.2426 48.038C26.2506 46.3847 24.4732 45.558 21.9106 45.558C17.5706 45.558 13.7886 44.6487 10.5646 42.83C7.38191 40.97 4.92258 38.366 3.18658 35.018C1.45058 31.6287 0.582581 27.6607 0.582581 23.114C0.582581 18.5673 1.45058 14.62 3.18658 11.272C4.92258 7.88266 7.38191 5.27866 10.5646 3.46C13.7886 1.64133 17.5706 0.731995 21.9106 0.731995C26.2506 0.731995 30.0119 1.64133 33.1946 3.46C36.4186 5.27866 38.8986 7.88266 40.6346 11.272C42.3706 14.62 43.2386 18.5673 43.2386 23.114C43.2386 27.8673 42.2879 31.98 40.3866 35.452C38.5266 38.8827 35.8606 41.4453 32.3886 43.14ZM21.9106 38.056C25.5479 38.056 28.3999 36.7747 30.4666 34.212C32.5746 31.6493 33.6286 27.95 33.6286 23.114C33.6286 18.278 32.5952 14.5993 30.5286 12.078C28.4619 9.51533 25.5892 8.234 21.9106 8.234C18.2319 8.234 15.3592 9.51533 13.2926 12.078C11.2672 14.5993 10.2546 18.278 10.2546 23.114C10.2546 27.95 11.2879 31.6493 13.3546 34.212C15.4212 36.7747 18.2732 38.056 21.9106 38.056Z" fill="black"/>
</g>
</g>
<g id="mo-R">
<mask id="mask17" mask-type="alpha" maskUnits="userSpaceOnUse" x="-1" y="-3" width="42" height="53">
<g id="mo R">
<path id="Path 21" d="M5.09961 44.0913V4.10399C5.09961 4.10399 30.9019 0.571766 30.9019 12.581C30.9019 24.5903 19.0024 21.5181 5.75 21.5181C24.2124 21.5181 26 31.125 34.875 46.375" stroke="#FF0000" stroke-width="12"/>
</g>
</mask>
<g mask="url(#mask17)">
<path id="REF_16" d="M38.058 44H27.518L19.954 30.05C19.334 28.9753 18.59 28.2107 17.722 27.756C16.854 27.26 15.7586 27.012 14.436 27.012H9.66195V44H0.113953V0.290009H20.202C25.3273 0.290009 29.192 1.42667 31.796 3.70001C34.4413 5.93201 35.764 9.17668 35.764 13.434C35.764 16.7407 34.834 19.51 32.974 21.742C31.1553 23.974 28.572 25.4413 25.224 26.144C27.4973 26.7227 29.4193 28.3553 30.99 31.042L38.058 44ZM18.776 19.696C21.5453 19.696 23.55 19.2207 24.79 18.27C26.03 17.278 26.65 15.7487 26.65 13.682C26.65 11.574 26.03 10.0447 24.79 9.09401C23.55 8.14334 21.5453 7.66801 18.776 7.66801H9.53795V19.696H18.776Z" fill="black"/>
</g>
</g>
<g id="mo-S">
<mask id="mask18" mask-type="alpha" maskUnits="userSpaceOnUse" x="-2" y="0" width="40" height="47">
<g id="mo S">
<path id="Path 22" d="M33.625 9.375C30.2098 7.37846 6.71832 1.42532 6.71832 14.1443C6.71832 26.8633 30.9887 19.7448 31.1666 32.0469C31.3445 44.3489 9.625 41.375 1.625 37" stroke="#FF0000" stroke-width="12" stroke-linejoin="bevel"/>
</g>
</mask>
<g mask="url(#mask18)">
<path id="REF_17" d="M17.7306 45.558C14.4239 45.558 11.2412 45.124 8.18258 44.256C5.12391 43.3467 2.58191 42.1067 0.55658 40.536L3.65658 33.654C7.87258 36.5887 12.6052 38.056 17.8546 38.056C20.5826 38.056 22.6699 37.622 24.1166 36.754C25.6046 35.8447 26.3486 34.6047 26.3486 33.034C26.3486 31.6287 25.6666 30.5333 24.3026 29.748C22.9799 28.9627 20.6032 28.198 17.1726 27.454C13.3286 26.6687 10.2492 25.718 7.93458 24.602C5.66125 23.486 3.98725 22.122 2.91258 20.51C1.87925 18.8567 1.36258 16.8313 1.36258 14.434C1.36258 11.7887 2.08591 9.43266 3.53258 7.366C5.02058 5.29933 7.08725 3.68733 9.73258 2.52999C12.3779 1.33133 15.4366 0.731995 18.9086 0.731995C22.0086 0.731995 24.9846 1.18666 27.8366 2.096C30.7299 3.00533 33.0239 4.22466 34.7186 5.754L31.6186 12.636C27.6092 9.70133 23.3932 8.234 18.9706 8.234C16.4492 8.234 14.4652 8.73 13.0186 9.722C11.5719 10.6727 10.8486 11.9953 10.8486 13.69C10.8486 14.682 11.1172 15.5087 11.6546 16.17C12.2332 16.79 13.1632 17.348 14.4446 17.844C15.7672 18.34 17.6272 18.8567 20.0246 19.394C25.6459 20.634 29.6759 22.2253 32.1146 24.168C34.5946 26.1107 35.8346 28.7973 35.8346 32.228C35.8346 36.3613 34.2432 39.6267 31.0606 42.024C27.8779 44.38 23.4346 45.558 17.7306 45.558Z" fill="black"/>
</g>
</g>
<g id="mo-T">
<mask id="mask19" mask-type="alpha" maskUnits="userSpaceOnUse" x="-1" y="-2" width="39" height="47">
<g id="mo T">
<path id="Path 23" d="M-0.101593 4H37.3501" stroke="#FF0000" stroke-width="12" stroke-linejoin="bevel"/>
<path id="Path 24" d="M17.8984 10V44.9678" stroke="#FF0000" stroke-width="12" stroke-linejoin="bevel"/>
</g>
</mask>
<g mask="url(#mask19)">
<path id="REF_18" d="M13.8444 44V8.16401H0.142395V0.290009H37.2184V8.16401H23.5164V44H13.8444Z" fill="black"/>
</g>
</g>
<g id="mo-U">
<mask id="mask20" mask-type="alpha" maskUnits="userSpaceOnUse" x="-2" y="0" width="41" height="47">
<g id="mo U">
<path id="Path 25" d="M4.50793 0V27.0256C4.50793 27.0256 5.45715 40.1096 18.2301 40.1096C31.0031 40.1096 32.7406 27.978 32.7406 27.978V0" stroke="#FF0000" stroke-width="12" stroke-linejoin="bevel"/>
</g>
</mask>
<g mask="url(#mask20)">
<path id="REF_19" d="M19.1362 44.558C13.0189 44.558 8.34819 42.9873 5.12419 39.846C1.94152 36.6633 0.350189 32.034 0.350189 25.958V0.290009H9.83619V26.392C9.83619 29.864 10.6215 32.5093 12.1922 34.328C13.8042 36.1467 16.1189 37.056 19.1362 37.056C22.1535 37.056 24.4682 36.1467 26.0802 34.328C27.6922 32.468 28.4982 29.8227 28.4982 26.392V0.290009H37.9842V25.958C37.9842 31.9927 36.3722 36.6013 33.1482 39.784C29.9242 42.9667 25.2535 44.558 19.1362 44.558Z" fill="black"/>
</g>
</g>
<g id="mo-V">
<mask id="mask21" mask-type="alpha" maskUnits="userSpaceOnUse" x="-2" y="-5" width="52" height="52">
<g id="mo V">
<path id="Path 26" d="M3.75 -1.625L24.1243 43.75L43.625 -1.625" stroke="#FF0000" stroke-width="12" stroke-linejoin="bevel"/>
</g>
</mask>
<g mask="url(#mask21)">
<path id="REF_20" d="M37.3313 0.290009H47.1273L27.4733 44H19.7233L0.00726318 0.290009H10.0513L23.6913 31.972L37.3313 0.290009Z" fill="black"/>
</g>
</g>
<g id="mo-W">
<mask id="mask22" mask-type="alpha" maskUnits="userSpaceOnUse" x="-1" y="-4" width="71" height="50">
<g id="mo W">
<path id="Path 27" d="M4.75 -1.375L20.343 43.2466L34.4114 0.00292969L48.696 43.2466L63.625 -1.75" stroke="#FF0000" stroke-width="12" stroke-linejoin="bevel"/>
</g>
</mask>
<g mask="url(#mask22)">
<path id="REF_21" d="M58.5248 0.290009H67.7008L52.1388 44H44.3888L34.2828 15.046L24.0528 44H16.3028L0.802765 0.290009H10.5988L20.5808 30.484L31.1828 0.290009H37.9408L48.1708 30.794L58.5248 0.290009Z" fill="black"/>
</g>
</g>
<g id="mo-X">
<mask id="mask23" mask-type="alpha" maskUnits="userSpaceOnUse" x="-2" y="-7" width="50" height="58">
<g id="mo X">
<path id="Path 28" d="M4.5 -2.5L42.375 46.625" stroke="#FF0000" stroke-width="12" stroke-linejoin="bevel"/>
<path id="Path 28_2" d="M41.625 -2L3.125 47" stroke="#FF0000" stroke-width="12" stroke-linejoin="bevel"/>
</g>
</mask>
<g mask="url(#mask23)">
<path id="REF_22" d="M28.4118 21.866L45.0898 44H33.8058L22.9558 28.934L12.0438 44H0.821762L17.4998 21.866L1.25576 0.290009H12.4778L22.9558 14.798L33.4958 0.290009H44.7178L28.4118 21.866Z" fill="black"/>
</g>
</g>
<g id="mo-Y">
<mask id="mask24" mask-type="alpha" maskUnits="userSpaceOnUse" x="-1" y="-9" width="50" height="53">
<g id="mo Y">
<path id="Path 28_3" d="M4.25 -2.625L23.5687 22.3186V43.9993" stroke="#FF0000" stroke-width="12" stroke-linejoin="bevel"/>
<path id="Path 28_4" d="M44.125 -4.375L24.1782 21.0442" stroke="#FF0000" stroke-width="12" stroke-linejoin="bevel"/>
</g>
</mask>
<g mask="url(#mask24)">
<path id="REF_23" d="M46.4053 0.290009L28.3013 24.222V44H18.6293V24.222L0.587265 0.290009H11.5613L23.4033 16.472L35.4313 0.290009H46.4053Z" fill="black"/>
</g>
</g>
<g id="mo-Z">
<mask id="mask25" mask-type="alpha" maskUnits="userSpaceOnUse" x="-4" y="-2" width="41" height="49">
<g id="mo Z">
<path id="Path 32" d="M-0.0412598 4.00684H31.9993L0.874268 40.1509H33.4483" stroke="#FF0000" stroke-width="12" stroke-linejoin="bevel"/>
</g>
</mask>
<g mask="url(#mask25)">
<path id="REF_24" d="M11.0753 36.374H32.8373V44H0.349274V36.932L21.3053 7.91601H0.349274V0.290009H32.2173V7.23401L11.0753 36.374Z" fill="black"/>
</g>
</g>
<g id="mo-a">
<mask id="mask26" mask-type="alpha" maskUnits="userSpaceOnUse" x="-1" y="-1" width="31" height="34">
<g id="mo a">
<path id="Path 33" d="M2.25 7.87498C6.875 5.24999 18.0903 2.80368 21.6965 7.10467C25.3026 11.4057 23.875 21.3647 23.875 32.875" stroke="#FF0000" stroke-width="10" stroke-linejoin="round"/>
<path id="Path 34" d="M19.5 15.375C3.75 15.25 3.8634 19.201 4.8009 24.4197C6.20715 29.2947 16.875 29.125 17.75 20.625" stroke="#FF0000" stroke-width="10" stroke-linejoin="bevel"/>
</g>
</mask>
<g mask="url(#mask26)">
<path id="REF_25" d="M14.9129 0.358734C19.4596 0.358734 22.8076 1.4334 24.9569 3.58273C27.1476 5.73207 28.2429 9.0594 28.2429 13.5647V31.5447H19.3769V27.0187C18.7569 28.5894 17.7236 29.8294 16.2769 30.7387C14.8302 31.6067 13.1356 32.0407 11.1929 32.0407C9.12622 32.0407 7.24556 31.6274 5.55089 30.8007C3.89756 29.9741 2.57489 28.8167 1.58289 27.3287C0.632224 25.8407 0.156891 24.1874 0.156891 22.3687C0.156891 20.1367 0.714891 18.3801 1.83089 17.0987C2.98822 15.8174 4.82756 14.8874 7.34889 14.3087C9.87022 13.7301 13.3216 13.4407 17.7029 13.4407H19.3149V12.3247C19.3149 10.5061 18.9222 9.22474 18.1369 8.48074C17.3516 7.73674 15.9876 7.36473 14.0449 7.36473C12.5569 7.36473 10.9036 7.6334 9.08489 8.17073C7.26622 8.70807 5.53022 9.45207 3.87689 10.4027L1.39689 4.14073C3.13289 3.06607 5.26156 2.1774 7.78289 1.47474C10.3456 0.730735 12.7222 0.358734 14.9129 0.358734ZM13.2389 25.5927C15.0576 25.5927 16.5249 24.9934 17.6409 23.7947C18.7569 22.5547 19.3149 20.9634 19.3149 19.0207V17.9667H18.2609C14.9129 17.9667 12.5569 18.2354 11.1929 18.7727C9.87022 19.3101 9.20889 20.2814 9.20889 21.6867C9.20889 22.8027 9.58089 23.7327 10.3249 24.4767C11.1102 25.2207 12.0816 25.5927 13.2389 25.5927Z" fill="black"/>
</g>
</g>
<g id="mo-b">
<mask id="mask27" mask-type="alpha" maskUnits="userSpaceOnUse" x="-2" y="0" width="37" height="47">
<g id="mo b">
<path id="Path 35" d="M4.62427 0.537598V45.5376" stroke="#FF0000" stroke-width="12" stroke-linejoin="bevel"/>
<path id="Path 36" fill-rule="evenodd" clip-rule="evenodd" d="M10.7761 29.0704C10.7761 22.1749 13.7781 17.8535 21.9019 17.8535C25.25 17.8535 28.3923 23.6886 28.3923 29.0704C28.3923 34.4523 26.25 40.5376 21.9019 40.5376C14.2472 40.5376 10.7761 35.9659 10.7761 29.0704Z" stroke="#FF0000" stroke-width="12" stroke-linejoin="bevel"/>
</g>
</mask>
<g mask="url(#mask27)">
<path id="REF_26" d="M19.0683 13.3516C21.7136 13.3516 24.0489 13.9923 26.0743 15.2736C28.0996 16.5549 29.6703 18.3943 30.7863 20.7916C31.9436 23.1476 32.5223 25.8963 32.5223 29.0376C32.5223 32.1789 31.9436 34.9689 30.7863 37.4076C29.6703 39.8049 28.0789 41.6856 26.0123 43.0496C23.9869 44.3723 21.6723 45.0336 19.0683 45.0336C16.9603 45.0336 15.0589 44.5996 13.3643 43.7316C11.6696 42.8223 10.3676 41.5823 9.45828 40.0116V44.5376H0.220276V0.827606H9.58228V18.1876C10.4916 16.6583 11.7729 15.4803 13.4263 14.6536C15.1209 13.7856 17.0016 13.3516 19.0683 13.3516ZM16.3403 37.9036C18.5309 37.9036 20.2256 37.1389 21.4243 35.6096C22.6229 34.0389 23.2223 31.8483 23.2223 29.0376C23.2223 26.2683 22.6229 24.1603 21.4243 22.7136C20.2256 21.2256 18.5309 20.4816 16.3403 20.4816C14.1496 20.4816 12.4549 21.2463 11.2563 22.7756C10.0576 24.2636 9.45828 26.3923 9.45828 29.1616C9.45828 31.9723 10.0576 34.1423 11.2563 35.6716C12.4549 37.1596 14.1496 37.9036 16.3403 37.9036Z" fill="black"/>
</g>
</g>
<g id="mo-c">
<mask id="mask28" mask-type="alpha" maskUnits="userSpaceOnUse" x="-2" y="-2" width="34" height="36">
<g id="mo c">
<path id="Path 37" d="M27.75 7.75C20.75 2.87499 4.31177 2.42325 4.31177 15.1181C4.31177 27.8129 13.25 30.375 27.5 25.875" stroke="#FF0000" stroke-width="12" stroke-linejoin="bevel"/>
</g>
</mask>
<g mask="url(#mask28)">
<path id="REF_27" d="M16.1658 32.0479C11.2058 32.0479 7.29977 30.6426 4.44777 27.8319C1.59577 25.0212 0.169769 21.1979 0.169769 16.3619C0.169769 13.1792 0.85177 10.3892 2.21577 7.99191C3.57977 5.55324 5.50177 3.67257 7.98177 2.34991C10.4618 1.02724 13.3344 0.365906 16.5998 0.365906C18.8318 0.365906 20.9811 0.717237 23.0478 1.4199C25.1144 2.08124 26.7884 2.99057 28.0698 4.1479L25.5898 10.5339C24.3911 9.58324 23.0684 8.85991 21.6218 8.36391C20.2164 7.82657 18.8318 7.5579 17.4678 7.5579C15.0291 7.5579 13.1278 8.28124 11.7638 9.72791C10.4411 11.1746 9.77977 13.3239 9.77977 16.1759C9.77977 19.0279 10.4411 21.1979 11.7638 22.6859C13.1278 24.1326 15.0291 24.8559 17.4678 24.8559C18.8318 24.8559 20.2164 24.6079 21.6218 24.1119C23.0684 23.5746 24.3911 22.8306 25.5898 21.8799L28.0698 28.3279C26.7058 29.4852 24.9698 30.3946 22.8618 31.0559C20.7538 31.7172 18.5218 32.0479 16.1658 32.0479Z" fill="black"/>
</g>
</g>
<g id="mo-d">
<mask id="mask29" mask-type="alpha" maskUnits="userSpaceOnUse" x="-2" y="0" width="37" height="46">
<g id="mo d">
<path id="Path 35_2" d="M28.1958 0V44" stroke="#FF0000" stroke-width="12" stroke-linejoin="bevel"/>
<path id="Path 36_2" fill-rule="evenodd" clip-rule="evenodd" d="M20.0439 28.5328C20.0439 21.6373 20.042 17.3159 11.9182 17.3159C3.79443 17.3159 4.42773 23.151 4.42773 28.5328C4.42773 33.9147 4.26358 40 11.9182 40C19.5728 40 20.0439 35.4283 20.0439 28.5328Z" stroke="#FF0000" stroke-width="12" stroke-linejoin="bevel"/>
</g>
</mask>
<g mask="url(#mask29)">
<path id="REF_28" d="M32.6058 0.290009V44H23.3058V39.474C22.3965 41.0447 21.0945 42.2847 19.3998 43.194C17.7465 44.062 15.8658 44.496 13.7578 44.496C11.1538 44.496 8.81847 43.8347 6.7518 42.512C4.72647 41.148 3.13514 39.2673 1.9778 36.87C0.861803 34.4313 0.303802 31.6413 0.303802 28.5C0.303802 25.3587 0.861803 22.61 1.9778 20.254C3.13514 17.8567 4.72647 16.0173 6.7518 14.736C8.77714 13.4547 11.1125 12.814 13.7578 12.814C15.8245 12.814 17.6845 13.248 19.3378 14.116C21.0325 14.984 22.3345 16.2033 23.2438 17.774V0.290009H32.6058ZM16.4858 37.366C18.6765 37.366 20.3505 36.622 21.5078 35.134C22.7065 33.6047 23.3058 31.4347 23.3058 28.624C23.3058 25.8133 22.7065 23.664 21.5078 22.176C20.3505 20.688 18.6765 19.944 16.4858 19.944C14.2951 19.944 12.6005 20.688 11.4018 22.176C10.2031 23.6227 9.6038 25.7307 9.6038 28.5C9.6038 31.3107 10.2031 33.5013 11.4018 35.072C12.6005 36.6013 14.2951 37.366 16.4858 37.366Z" fill="black"/>
</g>
</g>
<g id="mo-e">
<mask id="mask30" mask-type="alpha" maskUnits="userSpaceOnUse" x="-1" y="-1" width="32" height="34">
<g id="mo e">
<path id="Path 37_2" d="M9.43945 15.7537C9.43945 15.7537 18.6704 15.7537 25.3901 15.7537C25.3901 11.1194 24.0542 4.56104 15.6641 4.56104C7.27393 4.56104 4.4834 10.7406 4.4834 15.7537C4.4834 29.1719 17.25 30 28 25" stroke="#FF0000" stroke-width="10"/>
</g>
</mask>
<g mask="url(#mask30)">
<path id="REF_29" d="M29.2554 18.046H9.41537C9.70471 20.4847 10.49 22.262 11.7714 23.378C13.094 24.4527 14.954 24.99 17.3514 24.99C18.922 24.99 20.472 24.742 22.0014 24.246C23.572 23.7087 24.998 22.9647 26.2794 22.014L28.7594 28.276C27.2714 29.4333 25.4527 30.3427 23.3034 31.004C21.1954 31.6653 19.0667 31.996 16.9174 31.996C11.792 31.996 7.74137 30.5907 4.76537 27.78C1.83071 24.928 0.363373 21.0633 0.363373 16.186C0.363373 13.086 1.00404 10.3373 2.28537 7.93999C3.56671 5.54266 5.34404 3.68266 7.61737 2.35999C9.89071 0.995993 12.474 0.313995 15.3674 0.313995C19.6247 0.313995 22.9934 1.69866 25.4734 4.46799C27.9947 7.23733 29.2554 10.9987 29.2554 15.752V18.046ZM15.6154 6.76199C13.838 6.76199 12.412 7.34066 11.3374 8.49799C10.304 9.61399 9.66337 11.2467 9.41537 13.396H21.3814C21.2574 11.2053 20.6994 9.552 19.7074 8.436C18.7567 7.32 17.3927 6.76199 15.6154 6.76199Z" fill="black"/>
</g>
</g>
<g id="mo-f">
<mask id="mask31" mask-type="alpha" maskUnits="userSpaceOnUse" x="-1" y="-3" width="27" height="48">
<g id="mo f">
<path id="Path 42" d="M-0.540527 17.375H23.6423" stroke="#FF0000" stroke-width="12" stroke-linejoin="bevel"/>
<path id="Path 10_2" d="M9.75586 44.375L9.75586 13.9814C9.75586 13.9814 8.625 3.25 25 3.375" stroke="#FF0000" stroke-width="12" stroke-linejoin="bevel"/>
</g>
</mask>
<g mask="url(#mask31)">
<path id="REF_30" d="M15.3819 13.933H23.0079V20.939H15.3819V44.375H6.01986V20.939H0.25386V13.933H6.01986C6.10253 9.63431 7.34253 6.41032 9.73986 4.26098C12.1785 2.07031 15.8779 0.830313 20.8379 0.540981L24.2479 0.35498L24.8059 7.23698L21.8919 7.36098C19.4945 7.44365 17.7999 7.89831 16.8079 8.72498C15.8572 9.51031 15.3819 10.833 15.3819 12.693V13.933Z" fill="black"/>
</g>
</g>
<g id="mo-g">
<mask id="mask32" mask-type="alpha" maskUnits="userSpaceOnUse" x="-1" y="-2" width="36" height="49">
<g id="mo g">
<path id="Path 43" d="M28.1124 0.959961V29.2947C28.1124 29.2947 24.25 49.125 2.75 35" stroke="#FF0000" stroke-width="12" stroke-linejoin="bevel"/>
<path id="Path 36_3" fill-rule="evenodd" clip-rule="evenodd" d="M5.12848 15.0999C5.12848 21.636 6.625 26.375 10.419 26.75C17.8008 26.75 21.7447 21.8079 21.7447 15.0999C21.7447 8.39185 18.6856 4.69434 10.419 4.69434C7.12501 4 5.12848 8.56372 5.12848 15.0999Z" stroke="#FF0000" stroke-width="12" stroke-linejoin="bevel"/>
</g>
</mask>
<g mask="url(#mask32)">
<path id="REF_31" d="M32.8846 1.55799V28.714C32.8846 33.6327 31.4793 37.3527 28.6686 39.874C25.858 42.3953 21.704 43.656 16.2066 43.656C13.4786 43.656 10.854 43.3253 8.33263 42.664C5.85263 42.0027 3.66196 41.0727 1.76063 39.874L4.24063 33.426C8.16729 35.5753 12.0733 36.65 15.9586 36.65C21.084 36.65 23.6466 34.232 23.6466 29.396V26.048C22.7786 27.6187 21.4766 28.8587 19.7406 29.768C18.0046 30.6773 16.062 31.132 13.9126 31.132C11.2673 31.132 8.91129 30.512 6.84463 29.272C4.81929 28.032 3.22796 26.2753 2.07063 24.002C0.913292 21.6873 0.334625 19.0213 0.334625 16.004C0.334625 12.9867 0.913292 10.3413 2.07063 8.068C3.22796 5.75333 4.81929 3.97599 6.84463 2.73599C8.91129 1.45466 11.2673 0.813995 13.9126 0.813995C16.0206 0.813995 17.922 1.26866 19.6166 2.17799C21.3526 3.04599 22.6753 4.26533 23.5846 5.83599V1.55799H32.8846ZM16.6406 24.002C18.8313 24.002 20.526 23.2993 21.7246 21.894C22.9646 20.4887 23.5846 18.5253 23.5846 16.004C23.5846 13.4827 22.9646 11.5193 21.7246 10.114C20.526 8.66733 18.8313 7.944 16.6406 7.944C14.45 7.944 12.7346 8.66733 11.4946 10.114C10.2546 11.5193 9.63463 13.4827 9.63463 16.004C9.63463 18.484 10.2546 20.4473 11.4946 21.894C12.7346 23.2993 14.45 24.002 16.6406 24.002Z" fill="black"/>
</g>
</g>
<g id="mo-h">
<mask id="mask33" mask-type="alpha" maskUnits="userSpaceOnUse" x="-1" y="0" width="33" height="45">
<g id="mo h">
<path id="Path 45" d="M5.24976 0V44" stroke="#FF0000" stroke-width="12" stroke-linejoin="bevel"/>
<path id="Path 46" d="M7.3938 22.5C7.3938 22.5 11.7441 17.1104 17.2292 17.1104C22.3236 17.1104 25.9988 19.8792 25.8693 25.4881C25.8171 27.7541 25.9988 44 25.9988 44" stroke="#FF0000" stroke-width="12" stroke-linejoin="bevel"/>
</g>
</mask>
<g mask="url(#mask33)">
<path id="REF_32" d="M20.1107 12.814C23.748 12.814 26.4554 13.8887 28.2327 16.038C30.01 18.146 30.8987 21.3493 30.8987 25.648V44H21.5367V26.082C21.5367 24.0153 21.144 22.5067 20.3587 21.556C19.6147 20.6053 18.4367 20.13 16.8247 20.13C14.882 20.13 13.3114 20.75 12.1127 21.99C10.9554 23.23 10.3767 24.8833 10.3767 26.95V44H1.01471V0.290009H10.3767V17.588C11.4514 16.0173 12.8154 14.8393 14.4687 14.054C16.1634 13.2273 18.044 12.814 20.1107 12.814Z" fill="black"/>
</g>
</g>
<g id="mo-i">
<mask id="mask34" mask-type="alpha" maskUnits="userSpaceOnUse" x="-1" y="-1" width="13" height="46">
<g id="mo i">
<path id="Path_2" d="M5.74927 14.5132V45" stroke="#FF0000" stroke-width="12" stroke-linejoin="bevel"/>
<path id="Path 47" d="M5.49927 -0.101562V9.1836" stroke="#FF0000" stroke-width="12" stroke-linejoin="bevel"/>
</g>
</mask>
<g mask="url(#mask34)">
<path id="REF_33" d="M0.630923 45V14.558H9.99292V45H0.630923ZM0.320923 -0.0740051H10.3649V8.668H0.320923V-0.0740051Z" fill="black"/>
</g>
</g>
<g id="mo-j">
<mask id="mask35" mask-type="alpha" maskUnits="userSpaceOnUse" x="-1" y="-1" width="21" height="61">
<g id="mo j">
<path id="Path 10_3" d="M13.3284 14.3921V43.3936C13.3284 43.3936 12.5 53.5 -0.079834 53" stroke="#FF0000" stroke-width="12" stroke-linejoin="bevel"/>
<path id="Path 47_2" d="M13.1345 -0.101562V9.1836" stroke="#FF0000" stroke-width="12" stroke-linejoin="bevel"/>
</g>
</mask>
<g mask="url(#mask35)">
<path id="REF_34" d="M17.6282 43.016C17.6282 46.116 17.1735 48.596 16.2642 50.456C15.3548 52.316 13.8875 53.7007 11.8622 54.61C9.87817 55.5607 7.17083 56.1393 3.74017 56.346L0.826165 56.532L0.144165 49.836L3.30617 49.588C5.0835 49.464 6.34417 49.03 7.08817 48.286C7.8735 47.542 8.26617 46.364 8.26617 44.752V14.558H17.6282V43.016ZM7.89417 -0.0740051H17.9382V8.668H7.89417V-0.0740051Z" fill="black"/>
</g>
</g>
<g id="mo-k">
<mask id="mask36" mask-type="alpha" maskUnits="userSpaceOnUse" x="-1" y="-1" width="36" height="53">
<g id="mo k">
<path id="Path 50" d="M5.76636 -0.0849609V44.1826" stroke="#FF0000" stroke-width="12" stroke-linejoin="bevel"/>
<path id="Path 51" d="M29.75 10.75L14.6072 29L29.4822 47.625" stroke="#FF0000" stroke-width="12" stroke-linejoin="bevel"/>
</g>
</mask>
<g mask="url(#mask36)">
<path id="REF_35" d="M33.3162 44H21.8462L10.1902 30.422V44H0.828186V0.290009H10.1902V26.578L21.4122 13.62H32.5722L19.8002 28.128L33.3162 44Z" fill="black"/>
</g>
</g>
<g id="mo-l">
<mask id="mask37" mask-type="alpha" maskUnits="userSpaceOnUse" x="-2" y="0" width="13" height="44">
<g id="mo l">
<path id="Path 52" d="M4.62427 0V44" stroke="#FF0000" stroke-width="12" stroke-linejoin="bevel"/>
</g>
</mask>
<g mask="url(#mask37)">
<path id="REF_36" d="M0.329163 44V0.290009H9.69116V44H0.329163Z" fill="black"/>
</g>
</g>
<g id="mo-m">
<mask id="mask38" mask-type="alpha" maskUnits="userSpaceOnUse" x="-3" y="-2" width="53" height="34">
<g id="mo m">
<path id="Path 56" d="M3.70959 0.458008V31.6279" stroke="#FF0000" stroke-width="12" stroke-linejoin="bevel"/>
<path id="Path 57" d="M9.375 9.74999C12.125 9.75 13.75 4.625 16.5126 4.40527C23.5197 4.84668 23.7889 11.7427 23.7889 11.7427V31.7393" stroke="#FF0000" stroke-width="12" stroke-linejoin="bevel"/>
<path id="Path 57_2" d="M28.1637 11.8167C33 9.5 34 4.625 36.5126 4.40527C43.5197 4.84668 43.7889 11.7427 43.7889 11.7427V31.7393" stroke="#FF0000" stroke-width="12" stroke-linejoin="bevel"/>
</g>
</mask>
<g mask="url(#mask38)">
<path id="REF_37" d="M37.832 0.313995C41.304 0.313995 43.8873 1.36799 45.582 3.47599C47.2766 5.58399 48.124 8.80799 48.124 13.148V31.5H38.762V13.458C38.762 11.3913 38.4313 9.90333 37.77 8.994C37.15 8.08466 36.0753 7.62999 34.546 7.62999C32.7686 7.62999 31.384 8.24999 30.392 9.48999C29.4 10.73 28.904 12.466 28.904 14.698V31.5H19.542V13.458C19.542 11.3913 19.2113 9.90333 18.55 8.994C17.93 8.08466 16.8553 7.62999 15.326 7.62999C13.5486 7.62999 12.164 8.24999 11.172 9.48999C10.18 10.73 9.68396 12.466 9.68396 14.698V31.5H0.32196V1.05799H9.43596V5.14999C10.3866 3.57933 11.6473 2.38066 13.218 1.554C14.83 0.72733 16.6693 0.313995 18.736 0.313995C23.2413 0.313995 26.2586 2.19466 27.788 5.95599C28.78 4.21999 30.1646 2.85599 31.942 1.86399C33.7193 0.830661 35.6826 0.313995 37.832 0.313995Z" fill="black"/>
</g>
</g>
<g id="mo-n">
<mask id="mask39" mask-type="alpha" maskUnits="userSpaceOnUse" x="-1" y="-2" width="34" height="35">
<g id="mo n">
<path id="Path 56_2" d="M5.45959 0.352539V32.4854" stroke="#FF0000" stroke-width="12" stroke-linejoin="bevel"/>
<path id="Path 57_3" d="M6.9137 11.7542C6.9137 11.7542 10.93 3.81787 19.2626 4.34278C26.2697 4.78418 26.5389 11.6802 26.5389 11.6802V31.6768" stroke="#FF0000" stroke-width="12" stroke-linejoin="bevel"/>
</g>
</mask>
<g mask="url(#mask39)">
<path id="REF_38" d="M19.668 0.251495C23.3053 0.251495 26.0126 1.32616 27.79 3.47549C29.5673 5.5835 30.456 8.78683 30.456 13.0855V31.4375H21.094V13.5195C21.094 11.4528 20.7013 9.94416 19.916 8.9935C19.172 8.04283 17.994 7.56749 16.382 7.56749C14.4393 7.56749 12.8686 8.18749 11.67 9.42749C10.5126 10.6675 9.93396 12.3208 9.93396 14.3875V31.4375H0.57196V0.995495H9.68596V5.33549C10.7606 3.68216 12.1453 2.42149 13.84 1.55349C15.576 0.685494 17.5186 0.251495 19.668 0.251495Z" fill="black"/>
</g>
</g>
<g id="mo-o">
<mask id="mask40" mask-type="alpha" maskUnits="userSpaceOnUse" x="-2" y="-2" width="36" height="37">
<g id="mo o">
<path id="Path 36_4" fill-rule="evenodd" clip-rule="evenodd" d="M4.94116 16.0999C4.94116 22.636 8.84985 28.0054 16.2317 28.0054C23.6135 28.0054 27.5574 22.8079 27.5574 16.0999C27.5574 9.39185 24.4983 4.19434 16.2317 4.19434C7.96509 4.19434 4.94116 9.56372 4.94116 16.0999Z" stroke="#FF0000" stroke-width="12" stroke-linejoin="bevel"/>
</g>
</mask>
<g mask="url(#mask40)">
<path id="REF_39" d="M16.5173 31.996C13.2933 31.996 10.4619 31.3553 8.02328 30.074C5.58461 28.7513 3.70394 26.912 2.38128 24.556C1.05861 22.1587 0.397278 19.348 0.397278 16.124C0.397278 12.9 1.05861 10.11 2.38128 7.75399C3.70394 5.35666 5.58461 3.51733 8.02328 2.23599C10.4619 0.95466 13.2933 0.313995 16.5173 0.313995C19.7413 0.313995 22.5726 0.95466 25.0113 2.23599C27.4499 3.51733 29.3306 5.35666 30.6533 7.75399C31.9759 10.11 32.6373 12.9 32.6373 16.124C32.6373 19.348 31.9759 22.1587 30.6533 24.556C29.3306 26.912 27.4499 28.7513 25.0113 30.074C22.5726 31.3553 19.7413 31.996 16.5173 31.996ZM16.5173 24.866C21.0639 24.866 23.3373 21.952 23.3373 16.124C23.3373 13.1893 22.7379 10.9987 21.5393 9.55199C20.3819 8.10533 18.7079 7.382 16.5173 7.382C11.9706 7.382 9.69728 10.296 9.69728 16.124C9.69728 21.952 11.9706 24.866 16.5173 24.866Z" fill="black"/>
</g>
</g>
<g id="mo-p">
<mask id="mask41" mask-type="alpha" maskUnits="userSpaceOnUse" x="-1" y="-2" width="36" height="45">
<g id="mo p">
<path id="Path 35_3" d="M5.42773 42.7861L5.42773 0.5625" stroke="#FF0000" stroke-width="12" stroke-linejoin="bevel"/>
<path id="Path 36_5" fill-rule="evenodd" clip-rule="evenodd" d="M5.57959 16.0297C5.57959 22.9252 9.58154 27.2466 17.7053 27.2466C25.8291 27.2466 28.1958 21.4115 28.1958 16.0297C28.1958 10.6478 25.36 4.5625 17.7053 4.5625C10.0507 4.5625 5.57959 9.13416 5.57959 16.0297Z" stroke="#FF0000" stroke-width="12" stroke-linejoin="bevel"/>
</g>
</mask>
<g mask="url(#mask41)">
<path id="REF_40" d="M19.3717 0.376495C21.9757 0.376495 24.2904 1.05849 26.3157 2.42249C28.3824 3.74516 29.9737 5.62583 31.0897 8.0645C32.2471 10.4618 32.8257 13.2312 32.8257 16.3725C32.8257 19.5138 32.2471 22.2832 31.0897 24.6805C29.9737 27.0365 28.4031 28.8552 26.3777 30.1365C24.3524 31.4178 22.0171 32.0585 19.3717 32.0585C17.3051 32.0585 15.4244 31.6452 13.7297 30.8185C12.0764 29.9505 10.7951 28.7518 9.88574 27.2225V42.7225H0.523743V1.12049H9.76174V5.39849C10.6711 3.82783 11.9731 2.60849 13.6677 1.74049C15.3624 0.831161 17.2637 0.376495 19.3717 0.376495ZM16.6437 24.9285C18.8344 24.9285 20.5291 24.2052 21.7277 22.7585C22.9264 21.2705 23.5257 19.1418 23.5257 16.3725C23.5257 13.5618 22.9264 11.3918 21.7277 9.8625C20.5291 8.29183 18.8344 7.5065 16.6437 7.5065C14.4531 7.5065 12.7584 8.27116 11.5597 9.8005C10.3611 11.2885 9.76174 13.4378 9.76174 16.2485C9.76174 19.0178 10.3611 21.1672 11.5597 22.6965C12.7584 24.1845 14.4531 24.9285 16.6437 24.9285Z" fill="black"/>
</g>
</g>
<g id="mo-q">
<mask id="mask42" mask-type="alpha" maskUnits="userSpaceOnUse" x="-1" y="-1" width="36" height="46">
<g id="mo q">
<path id="Path 35_4" d="M28.0083 44.0068L28.0083 1" stroke="#FF0000" stroke-width="12" stroke-linejoin="bevel"/>
<path id="Path 36_6" fill-rule="evenodd" clip-rule="evenodd" d="M27.8564 16.4672C27.8564 23.3627 23.8545 27.6841 15.7307 27.6841C7.60693 27.6841 5.24023 21.849 5.24023 16.4672C5.24023 11.0853 8.07608 5 15.7307 5C23.3853 5 27.8564 9.57166 27.8564 16.4672Z" stroke="#FF0000" stroke-width="12" stroke-linejoin="bevel"/>
</g>
</mask>
<g mask="url(#mask42)">
<path id="REF_41" d="M32.9183 1.55799V43.16H23.5563V27.598C22.6469 29.1273 21.3449 30.326 19.6503 31.194C17.9969 32.062 16.1369 32.496 14.0703 32.496C11.4249 32.496 9.08961 31.8553 7.06427 30.574C5.03894 29.2927 3.44761 27.474 2.29027 25.118C1.17427 22.7207 0.616272 19.9513 0.616272 16.81C0.616272 13.6687 1.17427 10.8993 2.29027 8.502C3.44761 6.06333 5.03894 4.18266 7.06427 2.85999C9.13094 1.49599 11.4663 0.813995 14.0703 0.813995C16.1783 0.813995 18.0589 1.26866 19.7123 2.17799C21.4069 3.04599 22.7089 4.26533 23.6183 5.83599V1.55799H32.9183ZM16.7983 25.366C18.9889 25.366 20.6629 24.622 21.8203 23.134C23.0189 21.646 23.6183 19.4967 23.6183 16.686C23.6183 13.8753 23.0189 11.726 21.8203 10.238C20.6629 8.70866 18.9889 7.944 16.7983 7.944C14.6076 7.944 12.9129 8.72933 11.7143 10.3C10.5156 11.8293 9.91627 13.9993 9.91627 16.81C9.91627 19.5793 10.5156 21.708 11.7143 23.196C12.9129 24.6427 14.6076 25.366 16.7983 25.366Z" fill="black"/>
</g>
</g>
<g id="mo-r">
<mask id="mask43" mask-type="alpha" maskUnits="userSpaceOnUse" x="-2" y="-3" width="25" height="35">
<g id="mo r">
<path id="Path 63" d="M4.40942 0.570312V31.7471" stroke="#FF0000" stroke-width="12" stroke-linejoin="bevel"/>
<path id="Path 64" d="M6.4895 9.78883C6.4895 9.78883 15.5967 3.58154 22.125 3.625" stroke="#FF0000" stroke-width="12" stroke-linejoin="bevel"/>
</g>
</mask>
<g mask="url(#mask43)">
<path id="REF_42" d="M22.0667 8.00201L16.7967 8.56002C14.1927 8.80802 12.3534 9.55202 11.2787 10.792C10.2041 11.9907 9.66675 13.6027 9.66675 15.628V31.5H0.304749V1.05801H9.29475V6.20401C10.8241 2.69068 13.9861 0.76868 18.7807 0.438013L21.5087 0.252014L22.0667 8.00201Z" fill="black"/>
</g>
</g>
<g id="mo-s">
<mask id="mask44" mask-type="alpha" maskUnits="userSpaceOnUse" x="-2" y="-1" width="31" height="35">
<g id="mo s">
<path id="Path 22_2" d="M25.75 7.125C19.875 3.74999 5.4364 1.86793 5.4364 10C5.4364 18.1321 22.8852 14.572 22.9989 22.4375C23.1126 30.303 10.125 29.875 0.625 24.5" stroke="#FF0000" stroke-width="10" stroke-linejoin="bevel"/>
</g>
</mask>
<g mask="url(#mask44)">
<path id="REF_43" d="M14.0004 31.996C11.1897 31.996 8.60639 31.686 6.25039 31.066C3.93572 30.4047 1.93106 29.4747 0.236389 28.276L2.71639 21.828C4.36972 22.944 6.18839 23.812 8.17239 24.432C10.1564 25.052 12.1611 25.362 14.1864 25.362C15.6331 25.362 16.7491 25.1347 17.5344 24.68C18.3611 24.184 18.7744 23.5227 18.7744 22.696C18.7744 21.952 18.4851 21.3733 17.9064 20.96C17.3691 20.5467 16.3357 20.1747 14.8064 19.844L9.84639 18.728C6.91172 18.0667 4.74172 17.054 3.33639 15.69C1.97239 14.2847 1.29039 12.3833 1.29039 9.986C1.29039 8.08466 1.82772 6.41066 2.90239 4.96399C4.01839 3.51733 5.56839 2.38066 7.55239 1.554C9.57772 0.72733 11.8717 0.313995 14.4344 0.313995C16.6251 0.313995 18.7537 0.644662 20.8204 1.306C22.8871 1.96733 24.7471 2.89733 26.4004 4.09599L23.9204 10.296C20.6964 8.06399 17.5137 6.94799 14.3724 6.94799C12.9257 6.94799 11.7891 7.196 10.9624 7.692C10.1357 8.188 9.72239 8.89066 9.72239 9.8C9.72239 10.4613 9.97039 10.978 10.4664 11.35C10.9624 11.722 11.8304 12.0733 13.0704 12.404L18.2164 13.582C21.3164 14.2847 23.5691 15.3593 24.9744 16.806C26.4211 18.2113 27.1444 20.1333 27.1444 22.572C27.1444 25.5067 25.9664 27.8213 23.6104 29.516C21.2957 31.1693 18.0924 31.996 14.0004 31.996Z" fill="black"/>
</g>
</g>
<g id="mo-t">
<mask id="mask45" mask-type="alpha" maskUnits="userSpaceOnUse" x="-1" y="-1" width="26" height="43">
<g id="mo t">
<path id="Path 42_2" d="M-0.523926 13L23.6589 13" stroke="#FF0000" stroke-width="9" stroke-linejoin="bevel"/>
<path id="Path 10_4" d="M10.7725 -0.0625C10.7725 -0.0625 10.7725 21.3091 10.7725 27.3936C10.7725 29 8.25 37.625 23.7725 36.875" stroke="#FF0000" stroke-width="10" stroke-linejoin="bevel"/>
</g>
</mask>
<g mask="url(#mask45)">
<path id="REF_44" d="M20.4824 33.614C21.4331 33.614 22.4251 33.552 23.4584 33.428L22.9624 40.248C21.7638 40.4133 20.5651 40.496 19.3664 40.496C14.7371 40.496 11.3478 39.4833 9.19845 37.458C7.09045 35.4327 6.03645 32.3533 6.03645 28.22V16.564H0.270447V9.55801H6.03645V0.630005H15.3984V9.55801H23.0244V16.564H15.3984V28.158C15.3984 31.7953 17.0931 33.614 20.4824 33.614Z" fill="black"/>
</g>
</g>
<g id="mo-u">
<mask id="mask46" mask-type="alpha" maskUnits="userSpaceOnUse" x="0" y="0" width="31" height="33">
<g id="mo u">
<path id="Path 56_3" d="M25.6867 31.9289L25.6867 3.8147e-06" stroke="#FF0000" stroke-width="10" stroke-linejoin="bevel"/>
<path id="Path 57_4" d="M25.375 21.75C25.375 21.75 20.8581 27.8589 12.5256 27.334C5.51849 26.8926 5.56177 19.9966 5.56177 19.9966L5.56177 -3.8147e-06" stroke="#FF0000" stroke-width="10" stroke-linejoin="bevel"/>
</g>
</mask>
<g mask="url(#mask46)">
<path id="REF_45" d="M30.4212 0.557983V31H21.3072V26.66C20.3566 28.2307 19.0959 29.4293 17.5252 30.256C15.9959 31.0827 14.2599 31.496 12.3172 31.496C8.47324 31.496 5.60057 30.442 3.69924 28.334C1.83924 26.1847 0.909241 22.9607 0.909241 18.662V0.557983H10.2712V18.848C10.2712 20.6667 10.6432 22.01 11.3872 22.878C12.1726 23.746 13.3506 24.18 14.9212 24.18C16.7399 24.18 18.2072 23.56 19.3232 22.32C20.4806 21.08 21.0592 19.4473 21.0592 17.422V0.557983H30.4212Z" fill="black"/>
</g>
</g>
<g id="mo-v">
<mask id="mask47" mask-type="alpha" maskUnits="userSpaceOnUse" x="-2" y="-4" width="39" height="36">
<g id="mo v">
<path id="Path 70" d="M3.5 -1.125L17.7207 29.3191L32.125 -1" stroke="#FF0000" stroke-width="10" stroke-linejoin="bevel"/>
</g>
</mask>
<g mask="url(#mask47)">
<path id="REF_46" d="M26.0503 0.619995H35.2263L21.8343 31H13.8983L0.692261 0.619995H10.4263L18.1143 19.964L26.0503 0.619995Z" fill="black"/>
</g>
</g>
<g id="mo-w">
<mask id="mask48" mask-type="alpha" maskUnits="userSpaceOnUse" x="0" y="-5" width="56" height="37">
<g id="mo w">
<path id="Path 71" d="M4.75 -1.25L16.7822 29.3875L27.6868 1.5L38.2043 29.3875L51.25 -2.25" stroke="#FF0000" stroke-width="10" stroke-linejoin="bevel"/>
</g>
</mask>
<g mask="url(#mask48)">
<path id="REF_47" d="M45.3277 0.557983H54.4417L42.1037 31H34.1677L27.4717 13.826L20.9617 31H13.0877L0.687744 0.557983H10.2357L17.4277 19.84L24.6197 0.557983H30.9437L38.1977 20.026L45.3277 0.557983Z" fill="black"/>
</g>
</g>
<g id="mo-x">
<mask id="mask49" mask-type="alpha" maskUnits="userSpaceOnUse" x="-2" y="-6" width="40" height="44">
<g id="mo x">
<path id="Path 72" d="M3.875 -2.5L34.125 33.75" stroke="#FF0000" stroke-width="10"/>
<path id="Path 73" d="M2.625 33.75L33.375 -2.125" stroke="#FF0000" stroke-width="10"/>
</g>
</mask>
<g mask="url(#mask49)">
<path id="REF_48" d="M23.8212 15.314L36.7172 31H25.7432L18.4892 21.886L11.2972 31H0.26123L13.1572 15.314L1.00523 0.557983H12.1032L18.4892 8.80399L24.9372 0.557983H35.9732L23.8212 15.314Z" fill="black"/>
</g>
</g>
<g id="mo-y">
<mask id="mask50" mask-type="alpha" maskUnits="userSpaceOnUse" x="-2" y="-4" width="39" height="51">
<g id="mo y">
<path id="Path 74" d="M3.5 -1.75L16.5 27.375" stroke="#FF0000" stroke-width="10"/>
<path id="Path 75" d="M31.5 -1.625L9.875 44.625" stroke="#FF0000" stroke-width="10"/>
</g>
</mask>
<g mask="url(#mask50)">
<path id="REF_49" d="M25.7378 0.619995H34.9138L16.5618 42.16H7.07576L12.9038 29.326L0.379761 0.619995H10.1138L17.8018 19.964L25.7378 0.619995Z" fill="black"/>
</g>
</g>
<g id="mo-z">
<mask id="mask51" mask-type="alpha" maskUnits="userSpaceOnUse" x="-3" y="-1" width="33" height="33">
<g id="mo z">
<path id="Path 76" d="M0.249268 3.75L26.6243 4L0.624268 27.375H27.7493" stroke="#FF0000" stroke-width="9" stroke-linejoin="bevel"/>
</g>
</mask>
<g mask="url(#mask51)">
<path id="REF_50" d="M11.3253 23.994H27.3213V31H0.351318V24.49L15.4793 7.56398H0.537318V0.557983H26.7013V6.81998L11.3253 23.994Z" fill="black"/>
</g>
</g>
<g id="mo-1">
<mask id="mask52" mask-type="alpha" maskUnits="userSpaceOnUse" x="-2" y="-5" width="34" height="50">
<g id="mo 1">
<path id="Path 77" d="M2.125 13.125L16.6968 -0.5V34.7738" stroke="#FF0000" stroke-width="10" stroke-linejoin="bevel"/>
<path id="Path 78" d="M1.66901 39.6572H31.6767" stroke="#FF0000" stroke-width="10" stroke-linejoin="bevel"/>
</g>
</mask>
<g mask="url(#mask52)">
<path id="REF_51" d="M21.4279 36.25H30.8519V44H2.3319V36.25H11.7559V11.016L4.3159 15.356L0.657898 8.41201L14.5459 0.290009H21.4279V36.25Z" fill="black"/>
</g>
</g>
<g id="mo-2">
<mask id="mask53" mask-type="alpha" maskUnits="userSpaceOnUse" x="-3" y="-2" width="35" height="50">
<g id="mo 2">
<path id="Path 79" d="M1.125 9.62498C1.125 9.62498 16.375 -2.12501 24.0618 8.24998C29.1008 14.3879 16.6353 27.1197 16.6353 27.1197L2.31177 41.625L31.9368 41.5" stroke="#FF0000" stroke-width="11" stroke-linejoin="bevel"/>
</g>
</mask>
<g mask="url(#mask53)">
<path id="REF_52" d="M31.7238 37.25V45H1.65379V37.87L16.2238 22.432C19.2825 19.208 20.8118 16.232 20.8118 13.504C20.8118 10.032 18.8278 8.296 14.8598 8.296C13.0411 8.296 11.1398 8.668 9.1558 9.412C7.1718 10.1147 5.22913 11.148 3.3278 12.512L0.289795 5.63C2.02579 4.142 4.2578 2.964 6.9858 2.096C9.7138 1.18666 12.5038 0.731995 15.3558 0.731995C19.9025 0.731995 23.5191 1.82733 26.2058 4.018C28.9338 6.20866 30.2978 9.14333 30.2978 12.822C30.2978 15.3433 29.7605 17.6787 28.6858 19.828C27.6525 21.9773 25.8958 24.3747 23.4158 27.02L13.6818 37.25H31.7238Z" fill="black"/>
</g>
</g>
<g id="mo-3">
<mask id="mask54" mask-type="alpha" maskUnits="userSpaceOnUse" x="-2" y="-2" width="36" height="50">
<g id="mo 3">
<path id="Path 80" d="M2 9.49998C2 9.49998 25.875 -3.62502 26.1576 12.25C26.1073 22.5488 8.125 22.625 8.125 22.625C8.125 22.625 27.6576 23.5427 27.6576 32.375C27.9076 43.875 13.25 43.875 1.5 37.25" stroke="#FF0000" stroke-width="11" stroke-linejoin="bevel"/>
</g>
</mask>
<g mask="url(#mask54)">
<path id="REF_53" d="M24.3866 22.494C26.9493 23.238 28.9126 24.54 30.2766 26.4C31.682 28.2187 32.3846 30.4507 32.3846 33.096C32.3846 36.94 30.9173 39.978 27.9826 42.21C25.048 44.4007 21.08 45.496 16.0786 45.496C13.0613 45.496 10.168 45.062 7.39863 44.194C4.62929 43.326 2.37663 42.1273 0.640625 40.598L3.67863 33.716C7.64663 36.5267 11.6353 37.932 15.6446 37.932C18.29 37.932 20.212 37.4773 21.4106 36.568C22.6093 35.6173 23.2086 34.15 23.2086 32.166C23.2086 30.2233 22.6093 28.818 21.4106 27.95C20.212 27.082 18.29 26.648 15.6446 26.648H9.38263V19.146H14.5906C17.112 19.146 18.972 18.712 20.1706 17.844C21.4106 16.976 22.0306 15.6327 22.0306 13.814C22.0306 12.0367 21.4933 10.6727 20.4186 9.722C19.344 8.77133 17.794 8.296 15.7686 8.296C13.95 8.296 12.0486 8.668 10.0646 9.412C8.08063 10.1147 6.15863 11.148 4.29863 12.512L1.26063 5.63C2.99662 4.142 5.22863 2.964 7.95663 2.096C10.726 1.18666 13.5573 0.731995 16.4506 0.731995C19.4266 0.731995 22.0306 1.228 24.2626 2.22C26.4946 3.17066 28.21 4.53466 29.4086 6.312C30.6486 8.08933 31.2686 10.156 31.2686 12.512C31.2686 14.868 30.6486 16.9347 29.4086 18.712C28.21 20.448 26.536 21.7087 24.3866 22.494Z" fill="black"/>
</g>
</g>
<g id="mo-4">
<mask id="mask55" mask-type="alpha" maskUnits="userSpaceOnUse" x="-4" y="-4" width="39" height="49">
<g id="mo 4">
<path id="Path 81" d="M23.6798 44.717L24.6515 -0.375L1.02649 32.875H34.875" stroke="#FF0000" stroke-width="10" stroke-linejoin="bevel"/>
</g>
</mask>
<g mask="url(#mask55)">
<path id="REF_54" d="M34.4245 28.624V36.002H28.4725V44H19.0485V36.002H0.758545V28.872L20.7225 0.290009H28.4725V28.624H34.4245ZM9.56254 28.624H19.0485V14.984L9.56254 28.624Z" fill="black"/>
</g>
</g>
<g id="mo-5">
<mask id="mask56" mask-type="alpha" maskUnits="userSpaceOnUse" x="-3" y="-2" width="35" height="48">
<g id="mo 5">
<path id="Path 82" d="M29.6835 3.79736H6.11664L5.95593 21.875C5.95593 21.875 26.6835 12.8345 26.6835 29.2764C26.6835 45.7183 8.125 40.5 0.125 34.625" stroke="#FF0000" stroke-width="10"/>
</g>
</mask>
<g mask="url(#mask56)">
<path id="REF_55" d="M17.972 15.728C20.6586 15.728 23.056 16.3273 25.164 17.526C27.272 18.6833 28.9046 20.316 30.062 22.424C31.2193 24.532 31.798 26.9707 31.798 29.74C31.798 32.6747 31.0953 35.258 29.69 37.49C28.326 39.722 26.3626 41.458 23.8 42.698C21.2786 43.8967 18.3233 44.496 14.934 44.496C12.1646 44.496 9.41596 44.062 6.68796 43.194C3.95995 42.2847 1.74862 41.086 0.0539551 39.598L3.09196 32.716C7.10129 35.5267 11.09 36.932 15.058 36.932C17.5793 36.932 19.4806 36.3533 20.762 35.196C22.0846 34.0387 22.746 32.3233 22.746 30.05C22.746 27.9007 22.064 26.206 20.7 24.966C19.3773 23.726 17.5586 23.106 15.244 23.106C13.7973 23.106 12.3506 23.3747 10.904 23.912C9.49862 24.4493 8.21729 25.1933 7.05996 26.144H1.54195V0.290009H29.69V7.66801H10.966V17.402C12.95 16.286 15.2853 15.728 17.972 15.728Z" fill="black"/>
</g>
</g>
<g id="mo-6">
<mask id="mask57" mask-type="alpha" maskUnits="userSpaceOnUse" x="-2" y="-2" width="37" height="49">
<g id="mo 6">
<path id="Path 83" d="M31.625 8.87502C23 3.5 4.72998 -1.58569 4.72998 22.4954C4.72998 46.5764 24.4067 43.3892 27.8672 33.0977C31.3276 22.8062 20.4753 15.2969 7.72803 24.9387" stroke="#FF0000" stroke-width="12" stroke-linejoin="bevel"/>
</g>
</mask>
<g mask="url(#mask57)">
<path id="REF_56" d="M19.6826 16.604C22.2453 16.604 24.5186 17.2033 26.5026 18.402C28.5279 19.6007 30.0986 21.2747 31.2146 23.424C32.3719 25.5733 32.9506 28.012 32.9506 30.74C32.9506 33.592 32.3099 36.1547 31.0286 38.428C29.7473 40.66 27.9699 42.4167 25.6966 43.698C23.4233 44.938 20.8606 45.558 18.0086 45.558C12.3459 45.558 7.9646 43.6773 4.8646 39.916C1.7646 36.1547 0.2146 30.7813 0.2146 23.796C0.2146 19.0013 0.9586 14.8887 2.4466 11.458C3.9346 7.986 6.06327 5.34066 8.8326 3.522C11.6019 1.66199 14.8879 0.731995 18.6906 0.731995C21.3773 0.731995 23.9813 1.166 26.5026 2.034C29.0239 2.86066 31.1733 4.05933 32.9506 5.63L29.8506 12.512C26.0479 9.70133 22.4519 8.296 19.0626 8.296C16.2519 8.296 14.0406 9.45333 12.4286 11.768C10.8579 14.0413 9.98993 17.3687 9.8246 21.75C10.7753 20.1793 12.1186 18.9393 13.8546 18.03C15.5906 17.0793 17.5333 16.604 19.6826 16.604ZM17.4506 38.056C19.3933 38.056 20.9433 37.4153 22.1006 36.134C23.2993 34.8527 23.8986 33.158 23.8986 31.05C23.8986 28.9833 23.2993 27.3093 22.1006 26.028C20.9433 24.7467 19.3933 24.106 17.4506 24.106C15.5079 24.106 13.9373 24.7467 12.7386 26.028C11.5399 27.3093 10.9406 28.9833 10.9406 31.05C10.9406 33.1167 11.5399 34.8113 12.7386 36.134C13.9373 37.4153 15.5079 38.056 17.4506 38.056Z" fill="black"/>
</g>
</g>
<g id="mo-7">
<mask id="mask58" mask-type="alpha" maskUnits="userSpaceOnUse" x="0" y="-3" width="37" height="53">
<g id="mo 7">
<path id="Path 84" d="M0.311768 3.75L30.9368 3.125L6.06177 46.375" stroke="#FF0000" stroke-width="12" stroke-linejoin="bevel"/>
</g>
</mask>
<g mask="url(#mask58)">
<path id="REF_57" d="M0.725708 0.290009H32.1597V7.48201L12.6917 44H2.39971L21.8057 8.04001H0.725708V0.290009Z" fill="black"/>
</g>
</g>
<g id="mo-8">
<mask id="mask59" mask-type="alpha" maskUnits="userSpaceOnUse" x="-1" y="-2" width="37" height="50">
<g id="mo 8">
<path id="Path 85" fill-rule="evenodd" clip-rule="evenodd" d="M28.3379 13C28.3379 24.5703 5.25806 18.2159 5.25806 31.9537C5.25806 45.6915 29.9905 44.786 29.9905 31.9537C29.9905 19.1214 6.19306 24.9041 6.43555 13.25C6.67803 1.59589 28.3379 1.42966 28.3379 13Z" stroke="#FF0000" stroke-width="11" stroke-linejoin="bevel"/>
</g>
</mask>
<g mask="url(#mask59)">
<path id="REF_58" d="M26.0885 22.494C28.6099 23.238 30.5525 24.54 31.9165 26.4C33.2805 28.2187 33.9625 30.4507 33.9625 33.096C33.9625 36.9813 32.4745 40.0193 29.4985 42.21C26.5225 44.4007 22.4099 45.496 17.1605 45.496C11.9112 45.496 7.79852 44.4007 4.82252 42.21C1.84652 40.0193 0.358521 36.9813 0.358521 33.096C0.358521 30.368 1.04052 28.0947 2.40452 26.276C3.76852 24.4573 5.73185 23.1967 8.29452 22.494C6.14519 21.6673 4.47119 20.386 3.27252 18.65C2.07385 16.914 1.47452 14.8887 1.47452 12.574C1.47452 8.93666 2.87985 6.064 5.69052 3.95599C8.50119 1.80666 12.3245 0.731995 17.1605 0.731995C22.0379 0.731995 25.8612 1.786 28.6305 3.894C31.4412 6.002 32.8465 8.89533 32.8465 12.574C32.8465 14.93 32.2472 16.9967 31.0485 18.774C29.8499 20.5513 28.1965 21.7913 26.0885 22.494ZM17.1605 8.11C12.7379 8.11 10.5265 9.94933 10.5265 13.628C10.5265 17.348 12.7379 19.208 17.1605 19.208C21.5832 19.208 23.7945 17.348 23.7945 13.628C23.7945 9.94933 21.5832 8.11 17.1605 8.11ZM17.1605 38.118C22.3685 38.118 24.9725 36.196 24.9725 32.352C24.9725 28.508 22.3685 26.586 17.1605 26.586C11.9525 26.586 9.34852 28.508 9.34852 32.352C9.34852 36.196 11.9525 38.118 17.1605 38.118Z" fill="black"/>
</g>
</g>
<g id="mo-9">
<mask id="mask60" mask-type="alpha" maskUnits="userSpaceOnUse" x="-3" y="-1" width="37" height="49">
<g id="mo 9">
<path id="Path 86" d="M25.125 19C19.25 24.625 5.26111 31.8906 5.26111 16.4888C5.26111 1.08691 27.8531 0.745843 27.986 18.8562C28.1188 36.9665 19.5 50.375 1 36.25" stroke="#FF0000" stroke-width="11" stroke-linejoin="bevel"/>
</g>
</mask>
<g mask="url(#mask60)">
<path id="REF_59" d="M15.1227 0.731995C20.7853 0.731995 25.1667 2.61266 28.2667 6.374C31.3667 10.1353 32.9167 15.5087 32.9167 22.494C32.9167 27.2887 32.1727 31.422 30.6847 34.894C29.238 38.3247 27.1093 40.97 24.2987 42.83C21.5293 44.6487 18.2433 45.558 14.4407 45.558C11.754 45.558 9.15 45.1447 6.62866 44.318C4.10733 43.45 1.958 42.2307 0.180664 40.66L3.28066 33.778C7.08333 36.5887 10.6793 37.994 14.0687 37.994C16.9207 37.994 19.1113 36.8573 20.6407 34.584C22.2113 32.3107 23.1 28.9627 23.3067 24.54C22.356 26.1107 21.0127 27.3713 19.2767 28.322C17.5407 29.2313 15.598 29.686 13.4487 29.686C10.886 29.686 8.592 29.0867 6.56666 27.888C4.58266 26.6893 3.012 25.0153 1.85466 22.866C0.738664 20.7167 0.180664 18.278 0.180664 15.55C0.180664 12.698 0.821331 10.156 2.10266 7.92399C3.384 5.65066 5.16133 3.89399 7.43466 2.654C9.708 1.37266 12.2707 0.731995 15.1227 0.731995ZM15.6807 22.184C17.6233 22.184 19.194 21.5433 20.3927 20.262C21.5913 18.9807 22.1907 17.3067 22.1907 15.24C22.1907 13.1733 21.5913 11.4993 20.3927 10.218C19.194 8.89533 17.6233 8.234 15.6807 8.234C13.738 8.234 12.1673 8.87466 10.9687 10.156C9.81133 11.4373 9.23266 13.132 9.23266 15.24C9.23266 17.3067 9.81133 18.9807 10.9687 20.262C12.1673 21.5433 13.738 22.184 15.6807 22.184Z" fill="black"/>
</g>
</g>
<g id="mo-0">
<mask id="mask61" mask-type="alpha" maskUnits="userSpaceOnUse" x="-2" y="-1" width="37" height="48">
<g id="mo 0">
<path id="Path 87" fill-rule="evenodd" clip-rule="evenodd" d="M16.4239 5.02197C31.0499 5.02197 33.5331 40.6316 16.8055 40.8193C0.0779247 41.0071 1.79794 5.02197 16.4239 5.02197Z" stroke="#FF0000" stroke-width="12" stroke-linejoin="bevel"/>
</g>
</mask>
<g mask="url(#mask61)">
<path id="REF_60" d="M16.5508 45.558C11.2602 45.558 7.20951 43.636 4.39884 39.792C1.62951 35.948 0.244843 30.3887 0.244843 23.114C0.244843 15.922 1.65018 10.4247 4.46084 6.62199C7.27151 2.77799 11.3015 0.855988 16.5508 0.855988C21.8002 0.855988 25.8302 2.77799 28.6408 6.62199C31.4515 10.4247 32.8568 15.922 32.8568 23.114C32.8568 30.3887 31.4515 35.948 28.6408 39.792C25.8715 43.636 21.8415 45.558 16.5508 45.558ZM16.5508 38.18C18.9482 38.18 20.6842 36.9813 21.7588 34.584C22.8748 32.1867 23.4328 28.3633 23.4328 23.114C23.4328 17.906 22.8748 14.124 21.7588 11.768C20.6842 9.41199 18.9482 8.23399 16.5508 8.23399C14.1535 8.23399 12.3968 9.41199 11.2808 11.768C10.2062 14.124 9.66884 17.906 9.66884 23.114C9.66884 28.3633 10.2062 32.1867 11.2808 34.584C12.3968 36.9813 14.1535 38.18 16.5508 38.18Z" fill="black"/>
</g>
</g>
<g id="mo-exclamation-mark">
<mask id="mask62" mask-type="alpha" maskUnits="userSpaceOnUse" x="-1" y="0" width="13" height="45">
<g id="mo exclamation mark">
<path id="Path 88" d="M5.65942 0.151123V29.9644" stroke="#FF0000" stroke-width="12" stroke-linejoin="bevel"/>
<path id="Path 89" d="M5.58911 33.3188V44.4122" stroke="#FF0000" stroke-width="12" stroke-linejoin="bevel"/>
</g>
</mask>
<g mask="url(#mask62)">
<path id="REF_61" d="M3.02093 29.864L0.106934 0.227997L11.6389 0.289995L8.66293 29.864H3.02093ZM0.850934 34.08H10.8949V44H0.850934V34.08Z" fill="black"/>
</g>
</g>
<g id="mo-question-mark">
<mask id="mask63" mask-type="alpha" maskUnits="userSpaceOnUse" x="-2" y="-3" width="33" height="49">
<g id="mo question mark">
<path id="Path 90" d="M1.625 9.75001C11.875 2.25 24.8073 1.63405 24.8073 10.3142C24.8073 18.9944 15.9288 22.3579 15.9288 31.3186" stroke="#FF0000" stroke-width="12" stroke-linejoin="bevel"/>
<path id="Path 91" d="M14.5533 34.8655V45.3103" stroke="#FF0000" stroke-width="12" stroke-linejoin="bevel"/>
</g>
</mask>
<g mask="url(#mask63)">
<path id="REF_62" d="M12.0292 28.074C12.0292 25.9247 12.4219 24.1473 13.2072 22.742C13.9926 21.2953 15.0879 19.766 16.4932 18.154C17.5679 16.914 18.3532 15.86 18.8492 14.992C19.3866 14.124 19.6552 13.1733 19.6552 12.14C19.6552 10.9 19.2419 9.94933 18.4152 9.288C17.5886 8.62666 16.4106 8.296 14.8812 8.296C13.2279 8.296 11.4299 8.668 9.48723 9.412C7.54456 10.156 5.64323 11.1893 3.78323 12.512L0.683228 5.63C2.37789 4.142 4.58923 2.964 7.31723 2.096C10.0866 1.18666 12.8559 0.731995 15.6252 0.731995C18.2706 0.731995 20.6059 1.18666 22.6312 2.096C24.6979 2.964 26.2892 4.204 27.4052 5.816C28.5626 7.38666 29.1412 9.18466 29.1412 11.21C29.1412 12.7393 28.8519 14.1447 28.2732 15.426C27.6946 16.666 26.9919 17.7613 26.1652 18.712C25.3799 19.6213 24.2846 20.7373 22.8792 22.06C21.3086 23.548 20.1306 24.8087 19.3452 25.842C18.5599 26.834 18.0639 27.9293 17.8572 29.128L17.4852 31.174H12.0292V28.074ZM9.92123 45V35.08H19.9032V45H9.92123Z" fill="black"/>
</g>
</g>
<g id="mo-ampersand">
<mask id="mask64" mask-type="alpha" maskUnits="userSpaceOnUse" x="-1" y="-2" width="47" height="55">
<g id="mo ampersand">
<path id="Path 95" d="M41.5 48.875C21.4526 25.418 9.36663 16.9519 9.36663 10.4846C9.36663 4.01733 12.8512 4.01733 16.5939 4.01733C20.3366 4.01733 23.8212 4.01733 23.8212 10.4846C23.8212 16.9519 5.1894 21.0825 5.1894 33.5C4.73088 47.7153 34.875 42.375 34.8144 17.5" stroke="#FF0000" stroke-width="11" stroke-linejoin="bevel"/>
</g>
</mask>
<g mask="url(#mask64)">
<path id="REF_63" d="M33.1574 45L28.8174 40.66C24.9321 43.884 20.5714 45.496 15.7354 45.496C12.6767 45.496 9.96939 44.9793 7.61339 43.946C5.25739 42.9127 3.41806 41.4867 2.09539 39.668C0.772723 37.808 0.111389 35.6793 0.111389 33.282C0.111389 30.678 0.793389 28.3633 2.15739 26.338C3.56272 24.3127 5.77406 22.4527 8.79139 20.758C7.34472 19.1873 6.27006 17.658 5.56739 16.17C4.86472 14.682 4.51339 13.1527 4.51339 11.582C4.51339 9.47399 5.03006 7.61399 6.06339 6.00199C7.13806 4.34865 8.64672 3.08799 10.5894 2.21999C12.5321 1.31065 14.7434 0.855988 17.2234 0.855988C20.7367 0.855988 23.5267 1.76532 25.5934 3.58399C27.6601 5.36132 28.6934 7.75865 28.6934 10.776C28.6934 13.008 28.0527 15.0333 26.7714 16.852C25.5314 18.6707 23.5474 20.3447 20.8194 21.874L28.3214 29.252C29.8921 26.1107 30.8014 22.4527 31.0494 18.278H38.7994C38.5514 24.478 36.9187 29.9753 33.9014 34.77L44.3174 45H33.1574ZM17.3474 7.05599C16.0247 7.05599 14.9501 7.46932 14.1234 8.29599C13.2967 9.08132 12.8834 10.156 12.8834 11.52C12.8834 12.388 13.1107 13.2353 13.5654 14.062C14.0614 14.8887 14.9087 15.922 16.1074 17.162C17.9674 16.1287 19.2901 15.1573 20.0754 14.248C20.8607 13.2973 21.2534 12.2433 21.2534 11.086C21.2534 9.88732 20.8814 8.91599 20.1374 8.17199C19.4347 7.42799 18.5047 7.05599 17.3474 7.05599ZM15.9834 38.366C18.7114 38.366 21.2534 37.4153 23.6094 35.514L13.6274 25.594C10.6927 27.454 9.22539 29.81 9.22539 32.662C9.22539 34.4393 9.82472 35.8447 11.0234 36.878C12.2634 37.87 13.9167 38.366 15.9834 38.366Z" fill="black"/>
</g>
</g>
<g id="mo-period">
<mask id="mask65" mask-type="alpha" maskUnits="userSpaceOnUse" x="-2" y="-1" width="13" height="12">
<g id="mo period">
<path id="Path 92" d="M4.62427 -0.798584V10.3551" stroke="#FF0000" stroke-width="12" stroke-linejoin="bevel"/>
</g>
</mask>
<g mask="url(#mask65)">
<path id="REF_64" d="M-0.0863037 0.0799866H9.9577V9.99999H-0.0863037V0.0799866Z" fill="black"/>
</g>
</g>
<g id="mo-comma">
<mask id="mask66" mask-type="alpha" maskUnits="userSpaceOnUse" x="-4" y="-3" width="18" height="25">
<g id="mo comma">
<path id="Path 93" d="M2.25 10.875C2.25 10.875 4.82745 0.79222 6.46027 4.13206C8.09308 7.47191 6.21028 14.4233 3.25 18.375" stroke="#FF0000" stroke-width="12" stroke-linejoin="bevel"/>
</g>
</mask>
<g mask="url(#mask66)">
<path id="REF_65" d="M10.6608 0.0799866V6.46599C10.6608 8.82199 10.2268 10.9713 9.35876 12.914C8.53209 14.898 7.10609 16.9027 5.08076 18.928L1.42276 16.014C3.44809 13.9887 4.70876 11.984 5.20476 9.99999H0.61676V0.0799866H10.6608Z" fill="black"/>
</g>
</g>
<g id="mo-double-quote">
<mask id="mask67" mask-type="alpha" maskUnits="userSpaceOnUse" x="-2" y="0" width="27" height="21">
<g id="mo double quote">
<path id="Path 94" d="M4.62427 0.015625V20.1462" stroke="#FF0000" stroke-width="12" stroke-linejoin="bevel"/>
<path id="Path 94_2" d="M18.6243 0.015625V20.1462" stroke="#FF0000" stroke-width="12" stroke-linejoin="bevel"/>
</g>
</mask>
<g mask="url(#mask67)">
<path id="REF_66" d="M10.5538 9.72201V19.642H0.509766V13.256C0.509766 10.8587 0.923099 8.68867 1.74977 6.74601C2.61777 4.80334 4.06443 2.81934 6.08977 0.794006L9.68577 3.70801C7.70177 5.77467 6.46177 7.77934 5.96577 9.72201H10.5538ZM23.3878 9.72201V19.642H13.3438V13.256C13.3438 10.8587 13.7571 8.68867 14.5838 6.74601C15.4518 4.80334 16.8984 2.81934 18.9238 0.794006L22.5198 3.70801C20.5358 5.77467 19.2958 7.77934 18.7998 9.72201H23.3878Z" fill="black"/>
</g>
</g>
<g id="mo-apostrophe">
<mask id="mask68" mask-type="alpha" maskUnits="userSpaceOnUse" x="-1" y="0" width="13" height="21">
<g id="mo apostrophe">
<path id="Path 92_2" d="M5.62427 0.201416V20.3551" stroke="#FF0000" stroke-width="12" stroke-linejoin="bevel"/>
</g>
</mask>
<g mask="url(#mask68)">
<path id="REF_67" d="M10.9578 9.72201V19.642H0.913818V13.256C0.913818 10.8587 1.32715 8.68867 2.15382 6.74601C3.02182 4.80334 4.46849 2.81934 6.49382 0.794006L10.0898 3.70801C8.10582 5.77467 6.86582 7.77934 6.36982 9.72201H10.9578Z" fill="black"/>
</g>
</g>
</g>
<defs>
<clipPath id="clip0">
<rect width="69" height="60" fill="white"/>
</clipPath>
</defs>
</svg>
