<?xml version="1.0" encoding="UTF-8"?>
<svg width="567px" height="467px" viewBox="0 0 567 467" version="1.1" xmlns="http://www.w3.org/2000/svg" xmlns:xlink="http://www.w3.org/1999/xlink">
    <!-- Generator: Sketch 43.2 (39069) - http://www.bohemiancoding.com/sketch -->
    <title>motext</title>
    <desc>Created with Sketch.</desc>
    <defs></defs>
    <g id="motext-page" stroke="none" stroke-width="1" fill="none" fill-rule="evenodd" stroke-linecap="square" opacity="0.5">
        <g id="motext" stroke="#DD0000" stroke-width="10">
            <g id="A" transform="translate(22.000000, 23.000000)" stroke-linejoin="bevel">
                <polyline id="Path" points="0.209960938 38.4140625 17.5234375 0.912109375 34.3789062 38.4140625"></polyline>
                <path d="M4.76660156,32.026712 L30.3623047,31.973288" id="Path-2"></path>
            </g>
            <g id="B" transform="translate(90.000000, 26.000000)" stroke-linejoin="bevel">
                <path d="M0.374023438,0.78125 C0.374023438,0.78125 26.3291016,-2.921875 26.3291016,8.12109375 C26.3291016,19.1640625 0.458984375,17.105304 0.458984375,17.105304 C0.458984375,17.105304 27.5214844,14.9130859 27.5214844,27.4482422 C27.5214844,39.9833984 0.374023438,35.3046875 0.374023438,35.3046875 L0.374023438,0.78125 Z"></path>
            </g>
            <g id="C" transform="translate(150.000000, 25.000000)" stroke-linejoin="bevel">
                <path d="M26.1552734,3.19921875 C26.1552734,3.19921875 0.719726562,-7.6894084 0.66015625,18.9521932 C0.600585937,45.5937947 26.1552734,34.5917969 26.1552734,34.5917969"></path>
            </g>
            <g id="D" transform="translate(210.000000, 25.000000)" stroke-linejoin="round">
                <path d="M0.930175781,1.39013672 C0.930175781,1.39013672 30.9067383,-3.84716797 30.9067383,18.2714844 C30.9067383,40.3901367 1.57324219,36.2719727 1.57324219,36.2719727 L0.930175781,1.39013672 Z" id="Path-3"></path>
            </g>
            <g id="G" transform="translate(383.000000, 26.000000)" stroke-linejoin="bevel">
                <path d="M27.2172852,1.97070312 C27.2172852,1.97070312 0.149414063,-6.65869141 0.806152344,17.5019531 C1.46289062,41.6625977 28.7954102,33.9189453 29.9394531,33.3110352 C31.0834961,32.703125 31.9394531,19.4622646 31.9394531,19.4622646 L21.8981944,19.4622646" id="Path-11"></path>
            </g>
            <g id="E" transform="translate(276.000000, 26.000000)" stroke-linejoin="bevel">
                <polyline id="Path-4" points="23.7734375 0.171875 0.623860279 0.171875 0.623860279 35.0644913 23.6523478 35.0644913"></polyline>
                <path d="M2.03808594,17.0410156 L19.1430664,17.1606445" id="Path-5"></path>
            </g>
            <g id="F" transform="translate(330.000000, 26.000000)" stroke-linejoin="bevel">
                <polyline id="Path-6" points="0.598632812 35.0927734 0.598632812 0.756006231 21.3828125 0.756006231"></polyline>
                <path d="M8.23828125,17.5751953 L20.2767131,17.5751953" id="Path-7"></path>
            </g>
        </g>
    </g>
</svg>